<mxfile host="Electron" modified="2023-09-04T14:50:30.204Z" agent="Mozilla/5.0 (Windows NT 10.0; Win64; x64) AppleWebKit/537.36 (KHTML, like Gecko) draw.io/21.6.8 Chrome/114.0.5735.289 Electron/25.5.0 Safari/537.36" etag="QNlWdkhQcIYCw_CzOSQP" version="21.6.8" type="device">
  <diagram name="第1頁" id="xKe_JA0rW6QKes0hkr_5">
    <mxGraphModel dx="1418" dy="1997" grid="1" gridSize="10" guides="1" tooltips="1" connect="1" arrows="1" fold="1" page="1" pageScale="1" pageWidth="827" pageHeight="1169" math="0" shadow="0">
      <root>
        <mxCell id="0" />
        <mxCell id="1" parent="0" />
        <mxCell id="Aw-a2iixVGw_T6WWrJI7-2" value="User Story" style="shape=table;startSize=30;container=1;collapsible=0;childLayout=tableLayout;fixedRows=1;rowLines=0;fontStyle=0;strokeColor=default;fontSize=16;" parent="1" vertex="1">
          <mxGeometry x="20" y="-100" width="300" height="210" as="geometry" />
        </mxCell>
        <mxCell id="LBEahy_goc1p-DvRM5PB-14" style="shape=tableRow;horizontal=0;startSize=0;swimlaneHead=0;swimlaneBody=0;top=0;left=0;bottom=0;right=0;collapsible=0;dropTarget=0;fillColor=none;points=[[0,0.5],[1,0.5]];portConstraint=eastwest;strokeColor=inherit;fontSize=16;" parent="Aw-a2iixVGw_T6WWrJI7-2" vertex="1">
          <mxGeometry y="30" width="300" height="30" as="geometry" />
        </mxCell>
        <mxCell id="LBEahy_goc1p-DvRM5PB-15" value="No." style="shape=partialRectangle;html=1;whiteSpace=wrap;connectable=0;fillColor=none;top=0;left=0;bottom=0;right=0;overflow=hidden;pointerEvents=1;strokeColor=inherit;fontSize=16;" parent="LBEahy_goc1p-DvRM5PB-14" vertex="1">
          <mxGeometry width="32" height="30" as="geometry">
            <mxRectangle width="32" height="30" as="alternateBounds" />
          </mxGeometry>
        </mxCell>
        <mxCell id="LBEahy_goc1p-DvRM5PB-16" value="項目" style="shape=partialRectangle;html=1;whiteSpace=wrap;connectable=0;fillColor=none;top=0;left=0;bottom=0;right=0;align=left;spacingLeft=6;overflow=hidden;strokeColor=inherit;fontSize=16;" parent="LBEahy_goc1p-DvRM5PB-14" vertex="1">
          <mxGeometry x="32" width="268" height="30" as="geometry">
            <mxRectangle width="268" height="30" as="alternateBounds" />
          </mxGeometry>
        </mxCell>
        <mxCell id="Aw-a2iixVGw_T6WWrJI7-3" value="" style="shape=tableRow;horizontal=0;startSize=0;swimlaneHead=0;swimlaneBody=0;top=0;left=0;bottom=0;right=0;collapsible=0;dropTarget=0;fillColor=none;points=[[0,0.5],[1,0.5]];portConstraint=eastwest;strokeColor=inherit;fontSize=16;" parent="Aw-a2iixVGw_T6WWrJI7-2" vertex="1">
          <mxGeometry y="60" width="300" height="30" as="geometry" />
        </mxCell>
        <mxCell id="Aw-a2iixVGw_T6WWrJI7-4" value="1" style="shape=partialRectangle;html=1;whiteSpace=wrap;connectable=0;fillColor=none;top=0;left=0;bottom=0;right=0;overflow=hidden;pointerEvents=1;strokeColor=inherit;fontSize=16;" parent="Aw-a2iixVGw_T6WWrJI7-3" vertex="1">
          <mxGeometry width="32" height="30" as="geometry">
            <mxRectangle width="32" height="30" as="alternateBounds" />
          </mxGeometry>
        </mxCell>
        <mxCell id="Aw-a2iixVGw_T6WWrJI7-5" value="使用者可以新增一筆資料" style="shape=partialRectangle;html=1;whiteSpace=wrap;connectable=0;fillColor=none;top=0;left=0;bottom=0;right=0;align=left;spacingLeft=6;overflow=hidden;strokeColor=inherit;fontSize=16;" parent="Aw-a2iixVGw_T6WWrJI7-3" vertex="1">
          <mxGeometry x="32" width="268" height="30" as="geometry">
            <mxRectangle width="268" height="30" as="alternateBounds" />
          </mxGeometry>
        </mxCell>
        <mxCell id="Aw-a2iixVGw_T6WWrJI7-6" value="" style="shape=tableRow;horizontal=0;startSize=0;swimlaneHead=0;swimlaneBody=0;top=0;left=0;bottom=0;right=0;collapsible=0;dropTarget=0;fillColor=none;points=[[0,0.5],[1,0.5]];portConstraint=eastwest;strokeColor=inherit;fontSize=16;" parent="Aw-a2iixVGw_T6WWrJI7-2" vertex="1">
          <mxGeometry y="90" width="300" height="30" as="geometry" />
        </mxCell>
        <mxCell id="Aw-a2iixVGw_T6WWrJI7-7" value="2" style="shape=partialRectangle;html=1;whiteSpace=wrap;connectable=0;fillColor=none;top=0;left=0;bottom=0;right=0;overflow=hidden;strokeColor=inherit;fontSize=16;" parent="Aw-a2iixVGw_T6WWrJI7-6" vertex="1">
          <mxGeometry width="32" height="30" as="geometry">
            <mxRectangle width="32" height="30" as="alternateBounds" />
          </mxGeometry>
        </mxCell>
        <mxCell id="Aw-a2iixVGw_T6WWrJI7-8" value="使用者可以瀏覽一筆資料" style="shape=partialRectangle;html=1;whiteSpace=wrap;connectable=0;fillColor=none;top=0;left=0;bottom=0;right=0;align=left;spacingLeft=6;overflow=hidden;strokeColor=inherit;fontSize=16;" parent="Aw-a2iixVGw_T6WWrJI7-6" vertex="1">
          <mxGeometry x="32" width="268" height="30" as="geometry">
            <mxRectangle width="268" height="30" as="alternateBounds" />
          </mxGeometry>
        </mxCell>
        <mxCell id="Aw-a2iixVGw_T6WWrJI7-9" value="" style="shape=tableRow;horizontal=0;startSize=0;swimlaneHead=0;swimlaneBody=0;top=0;left=0;bottom=0;right=0;collapsible=0;dropTarget=0;fillColor=none;points=[[0,0.5],[1,0.5]];portConstraint=eastwest;strokeColor=inherit;fontSize=16;" parent="Aw-a2iixVGw_T6WWrJI7-2" vertex="1">
          <mxGeometry y="120" width="300" height="30" as="geometry" />
        </mxCell>
        <mxCell id="Aw-a2iixVGw_T6WWrJI7-10" value="3" style="shape=partialRectangle;html=1;whiteSpace=wrap;connectable=0;fillColor=none;top=0;left=0;bottom=0;right=0;overflow=hidden;strokeColor=inherit;fontSize=16;" parent="Aw-a2iixVGw_T6WWrJI7-9" vertex="1">
          <mxGeometry width="32" height="30" as="geometry">
            <mxRectangle width="32" height="30" as="alternateBounds" />
          </mxGeometry>
        </mxCell>
        <mxCell id="Aw-a2iixVGw_T6WWrJI7-11" value="使用者可以編輯一筆資料" style="shape=partialRectangle;html=1;whiteSpace=wrap;connectable=0;fillColor=none;top=0;left=0;bottom=0;right=0;align=left;spacingLeft=6;overflow=hidden;strokeColor=inherit;fontSize=16;" parent="Aw-a2iixVGw_T6WWrJI7-9" vertex="1">
          <mxGeometry x="32" width="268" height="30" as="geometry">
            <mxRectangle width="268" height="30" as="alternateBounds" />
          </mxGeometry>
        </mxCell>
        <mxCell id="Aw-a2iixVGw_T6WWrJI7-12" style="shape=tableRow;horizontal=0;startSize=0;swimlaneHead=0;swimlaneBody=0;top=0;left=0;bottom=0;right=0;collapsible=0;dropTarget=0;fillColor=none;points=[[0,0.5],[1,0.5]];portConstraint=eastwest;strokeColor=inherit;fontSize=16;" parent="Aw-a2iixVGw_T6WWrJI7-2" vertex="1">
          <mxGeometry y="150" width="300" height="30" as="geometry" />
        </mxCell>
        <mxCell id="Aw-a2iixVGw_T6WWrJI7-13" value="4" style="shape=partialRectangle;html=1;whiteSpace=wrap;connectable=0;fillColor=none;top=0;left=0;bottom=0;right=0;overflow=hidden;strokeColor=inherit;fontSize=16;" parent="Aw-a2iixVGw_T6WWrJI7-12" vertex="1">
          <mxGeometry width="32" height="30" as="geometry">
            <mxRectangle width="32" height="30" as="alternateBounds" />
          </mxGeometry>
        </mxCell>
        <mxCell id="Aw-a2iixVGw_T6WWrJI7-14" value="使用者可以刪除一筆資料" style="shape=partialRectangle;html=1;whiteSpace=wrap;connectable=0;fillColor=none;top=0;left=0;bottom=0;right=0;align=left;spacingLeft=6;overflow=hidden;strokeColor=inherit;fontSize=16;" parent="Aw-a2iixVGw_T6WWrJI7-12" vertex="1">
          <mxGeometry x="32" width="268" height="30" as="geometry">
            <mxRectangle width="268" height="30" as="alternateBounds" />
          </mxGeometry>
        </mxCell>
        <mxCell id="Aw-a2iixVGw_T6WWrJI7-15" style="shape=tableRow;horizontal=0;startSize=0;swimlaneHead=0;swimlaneBody=0;top=0;left=0;bottom=0;right=0;collapsible=0;dropTarget=0;fillColor=none;points=[[0,0.5],[1,0.5]];portConstraint=eastwest;strokeColor=inherit;fontSize=16;" parent="Aw-a2iixVGw_T6WWrJI7-2" vertex="1">
          <mxGeometry y="180" width="300" height="30" as="geometry" />
        </mxCell>
        <mxCell id="Aw-a2iixVGw_T6WWrJI7-16" value="5" style="shape=partialRectangle;html=1;whiteSpace=wrap;connectable=0;fillColor=none;top=0;left=0;bottom=0;right=0;overflow=hidden;strokeColor=inherit;fontSize=16;" parent="Aw-a2iixVGw_T6WWrJI7-15" vertex="1">
          <mxGeometry width="32" height="30" as="geometry">
            <mxRectangle width="32" height="30" as="alternateBounds" />
          </mxGeometry>
        </mxCell>
        <mxCell id="Aw-a2iixVGw_T6WWrJI7-17" value="使用者可以瀏覽全部資料" style="shape=partialRectangle;html=1;whiteSpace=wrap;connectable=0;fillColor=none;top=0;left=0;bottom=0;right=0;align=left;spacingLeft=6;overflow=hidden;strokeColor=inherit;fontSize=16;" parent="Aw-a2iixVGw_T6WWrJI7-15" vertex="1">
          <mxGeometry x="32" width="268" height="30" as="geometry">
            <mxRectangle width="268" height="30" as="alternateBounds" />
          </mxGeometry>
        </mxCell>
        <mxCell id="Aw-a2iixVGw_T6WWrJI7-35" value="Wireframe" style="rounded=0;whiteSpace=wrap;html=1;fontSize=16;" parent="1" vertex="1">
          <mxGeometry x="20" y="230" width="640" height="40" as="geometry" />
        </mxCell>
        <mxCell id="Aw-a2iixVGw_T6WWrJI7-77" value="" style="group" parent="1" vertex="1" connectable="0">
          <mxGeometry x="20" y="290" width="300" height="230" as="geometry" />
        </mxCell>
        <mxCell id="Aw-a2iixVGw_T6WWrJI7-54" value="todos 清單" style="rounded=0;whiteSpace=wrap;html=1;container=0;" parent="Aw-a2iixVGw_T6WWrJI7-77" vertex="1">
          <mxGeometry width="300" height="40" as="geometry" />
        </mxCell>
        <mxCell id="Aw-a2iixVGw_T6WWrJI7-32" value="" style="rounded=0;whiteSpace=wrap;html=1;container=0;" parent="Aw-a2iixVGw_T6WWrJI7-77" vertex="1">
          <mxGeometry y="40" width="300" height="190" as="geometry" />
        </mxCell>
        <mxCell id="Aw-a2iixVGw_T6WWrJI7-33" value="Create" style="rounded=1;whiteSpace=wrap;html=1;container=0;" parent="Aw-a2iixVGw_T6WWrJI7-77" vertex="1">
          <mxGeometry x="10" y="50" width="60" height="20" as="geometry" />
        </mxCell>
        <mxCell id="Aw-a2iixVGw_T6WWrJI7-36" value="Todo-1" style="text;html=1;strokeColor=none;fillColor=none;align=center;verticalAlign=middle;whiteSpace=wrap;rounded=0;container=0;" parent="Aw-a2iixVGw_T6WWrJI7-77" vertex="1">
          <mxGeometry x="10" y="80" width="60" height="30" as="geometry" />
        </mxCell>
        <mxCell id="Aw-a2iixVGw_T6WWrJI7-37" value="Todo-2" style="text;html=1;strokeColor=none;fillColor=none;align=center;verticalAlign=middle;whiteSpace=wrap;rounded=0;container=0;" parent="Aw-a2iixVGw_T6WWrJI7-77" vertex="1">
          <mxGeometry x="10" y="115" width="60" height="30" as="geometry" />
        </mxCell>
        <mxCell id="Aw-a2iixVGw_T6WWrJI7-38" value="Todo-3" style="text;html=1;strokeColor=none;fillColor=none;align=center;verticalAlign=middle;whiteSpace=wrap;rounded=0;container=0;" parent="Aw-a2iixVGw_T6WWrJI7-77" vertex="1">
          <mxGeometry x="10" y="148" width="60" height="30" as="geometry" />
        </mxCell>
        <mxCell id="Aw-a2iixVGw_T6WWrJI7-39" value="Todo-4" style="text;html=1;strokeColor=none;fillColor=none;align=center;verticalAlign=middle;whiteSpace=wrap;rounded=0;container=0;" parent="Aw-a2iixVGw_T6WWrJI7-77" vertex="1">
          <mxGeometry x="10" y="185" width="60" height="30" as="geometry" />
        </mxCell>
        <mxCell id="Aw-a2iixVGw_T6WWrJI7-40" value="detail" style="rounded=1;whiteSpace=wrap;html=1;container=0;" parent="Aw-a2iixVGw_T6WWrJI7-77" vertex="1">
          <mxGeometry x="70" y="85" width="60" height="20" as="geometry" />
        </mxCell>
        <mxCell id="Aw-a2iixVGw_T6WWrJI7-41" value="edit" style="rounded=1;whiteSpace=wrap;html=1;container=0;" parent="Aw-a2iixVGw_T6WWrJI7-77" vertex="1">
          <mxGeometry x="140" y="85" width="60" height="20" as="geometry" />
        </mxCell>
        <mxCell id="Aw-a2iixVGw_T6WWrJI7-42" value="delete" style="rounded=1;whiteSpace=wrap;html=1;container=0;" parent="Aw-a2iixVGw_T6WWrJI7-77" vertex="1">
          <mxGeometry x="210" y="85" width="60" height="20" as="geometry" />
        </mxCell>
        <mxCell id="Aw-a2iixVGw_T6WWrJI7-43" value="detail" style="rounded=1;whiteSpace=wrap;html=1;container=0;" parent="Aw-a2iixVGw_T6WWrJI7-77" vertex="1">
          <mxGeometry x="70" y="120" width="60" height="20" as="geometry" />
        </mxCell>
        <mxCell id="Aw-a2iixVGw_T6WWrJI7-44" value="edit" style="rounded=1;whiteSpace=wrap;html=1;container=0;" parent="Aw-a2iixVGw_T6WWrJI7-77" vertex="1">
          <mxGeometry x="140" y="120" width="60" height="20" as="geometry" />
        </mxCell>
        <mxCell id="Aw-a2iixVGw_T6WWrJI7-45" value="delete" style="rounded=1;whiteSpace=wrap;html=1;container=0;" parent="Aw-a2iixVGw_T6WWrJI7-77" vertex="1">
          <mxGeometry x="210" y="120" width="60" height="20" as="geometry" />
        </mxCell>
        <mxCell id="Aw-a2iixVGw_T6WWrJI7-46" value="detail" style="rounded=1;whiteSpace=wrap;html=1;container=0;" parent="Aw-a2iixVGw_T6WWrJI7-77" vertex="1">
          <mxGeometry x="70" y="153" width="60" height="20" as="geometry" />
        </mxCell>
        <mxCell id="Aw-a2iixVGw_T6WWrJI7-47" value="edit" style="rounded=1;whiteSpace=wrap;html=1;container=0;" parent="Aw-a2iixVGw_T6WWrJI7-77" vertex="1">
          <mxGeometry x="140" y="153" width="60" height="20" as="geometry" />
        </mxCell>
        <mxCell id="Aw-a2iixVGw_T6WWrJI7-48" value="delete" style="rounded=1;whiteSpace=wrap;html=1;container=0;" parent="Aw-a2iixVGw_T6WWrJI7-77" vertex="1">
          <mxGeometry x="210" y="153" width="60" height="20" as="geometry" />
        </mxCell>
        <mxCell id="Aw-a2iixVGw_T6WWrJI7-49" value="detail" style="rounded=1;whiteSpace=wrap;html=1;container=0;" parent="Aw-a2iixVGw_T6WWrJI7-77" vertex="1">
          <mxGeometry x="70" y="190" width="60" height="20" as="geometry" />
        </mxCell>
        <mxCell id="Aw-a2iixVGw_T6WWrJI7-50" value="edit" style="rounded=1;whiteSpace=wrap;html=1;container=0;" parent="Aw-a2iixVGw_T6WWrJI7-77" vertex="1">
          <mxGeometry x="140" y="190" width="60" height="20" as="geometry" />
        </mxCell>
        <mxCell id="Aw-a2iixVGw_T6WWrJI7-51" value="delete" style="rounded=1;whiteSpace=wrap;html=1;container=0;" parent="Aw-a2iixVGw_T6WWrJI7-77" vertex="1">
          <mxGeometry x="210" y="190" width="60" height="20" as="geometry" />
        </mxCell>
        <mxCell id="Aw-a2iixVGw_T6WWrJI7-78" value="" style="group" parent="1" vertex="1" connectable="0">
          <mxGeometry x="360" y="290" width="300" height="230" as="geometry" />
        </mxCell>
        <mxCell id="Aw-a2iixVGw_T6WWrJI7-55" value="新增todo" style="rounded=0;whiteSpace=wrap;html=1;" parent="Aw-a2iixVGw_T6WWrJI7-78" vertex="1">
          <mxGeometry width="300" height="40" as="geometry" />
        </mxCell>
        <mxCell id="Aw-a2iixVGw_T6WWrJI7-57" value="" style="rounded=0;whiteSpace=wrap;html=1;container=0;" parent="Aw-a2iixVGw_T6WWrJI7-78" vertex="1">
          <mxGeometry y="40" width="300" height="190" as="geometry" />
        </mxCell>
        <mxCell id="Aw-a2iixVGw_T6WWrJI7-58" value="Create" style="rounded=1;whiteSpace=wrap;html=1;" parent="Aw-a2iixVGw_T6WWrJI7-78" vertex="1">
          <mxGeometry x="170" y="50" width="60" height="20" as="geometry" />
        </mxCell>
        <mxCell id="Aw-a2iixVGw_T6WWrJI7-76" value="please input name" style="rounded=0;whiteSpace=wrap;html=1;align=left;fontColor=#737373;" parent="Aw-a2iixVGw_T6WWrJI7-78" vertex="1">
          <mxGeometry x="10" y="50" width="150" height="20" as="geometry" />
        </mxCell>
        <mxCell id="Aw-a2iixVGw_T6WWrJI7-79" value="" style="group" parent="1" vertex="1" connectable="0">
          <mxGeometry x="20" y="550" width="300" height="230" as="geometry" />
        </mxCell>
        <mxCell id="Aw-a2iixVGw_T6WWrJI7-80" value="檢視todo" style="rounded=0;whiteSpace=wrap;html=1;" parent="Aw-a2iixVGw_T6WWrJI7-79" vertex="1">
          <mxGeometry width="300" height="40" as="geometry" />
        </mxCell>
        <mxCell id="Aw-a2iixVGw_T6WWrJI7-81" value="" style="rounded=0;whiteSpace=wrap;html=1;container=0;" parent="Aw-a2iixVGw_T6WWrJI7-79" vertex="1">
          <mxGeometry y="40" width="300" height="190" as="geometry" />
        </mxCell>
        <mxCell id="Aw-a2iixVGw_T6WWrJI7-82" value="edit" style="rounded=1;whiteSpace=wrap;html=1;" parent="Aw-a2iixVGw_T6WWrJI7-79" vertex="1">
          <mxGeometry x="20" y="70" width="60" height="20" as="geometry" />
        </mxCell>
        <mxCell id="Aw-a2iixVGw_T6WWrJI7-104" value="back" style="rounded=1;whiteSpace=wrap;html=1;" parent="Aw-a2iixVGw_T6WWrJI7-79" vertex="1">
          <mxGeometry x="90" y="70" width="60" height="20" as="geometry" />
        </mxCell>
        <mxCell id="Aw-a2iixVGw_T6WWrJI7-106" value="Todo-1" style="text;html=1;strokeColor=none;fillColor=none;align=center;verticalAlign=middle;whiteSpace=wrap;rounded=0;container=0;" parent="Aw-a2iixVGw_T6WWrJI7-79" vertex="1">
          <mxGeometry x="20" y="40" width="60" height="30" as="geometry" />
        </mxCell>
        <mxCell id="Aw-a2iixVGw_T6WWrJI7-107" value="delete" style="rounded=1;whiteSpace=wrap;html=1;container=0;" parent="Aw-a2iixVGw_T6WWrJI7-79" vertex="1">
          <mxGeometry x="160" y="70" width="60" height="20" as="geometry" />
        </mxCell>
        <mxCell id="Aw-a2iixVGw_T6WWrJI7-113" value="" style="group" parent="1" vertex="1" connectable="0">
          <mxGeometry x="360" y="550" width="300" height="230" as="geometry" />
        </mxCell>
        <mxCell id="Aw-a2iixVGw_T6WWrJI7-114" value="編輯todo" style="rounded=0;whiteSpace=wrap;html=1;" parent="Aw-a2iixVGw_T6WWrJI7-113" vertex="1">
          <mxGeometry width="300" height="40" as="geometry" />
        </mxCell>
        <mxCell id="Aw-a2iixVGw_T6WWrJI7-115" value="" style="rounded=0;whiteSpace=wrap;html=1;container=0;" parent="Aw-a2iixVGw_T6WWrJI7-113" vertex="1">
          <mxGeometry y="40" width="300" height="190" as="geometry" />
        </mxCell>
        <mxCell id="Aw-a2iixVGw_T6WWrJI7-116" value="save" style="rounded=1;whiteSpace=wrap;html=1;" parent="Aw-a2iixVGw_T6WWrJI7-113" vertex="1">
          <mxGeometry x="140" y="50" width="60" height="20" as="geometry" />
        </mxCell>
        <mxCell id="Aw-a2iixVGw_T6WWrJI7-117" value="todo-1" style="rounded=0;whiteSpace=wrap;html=1;align=left;fontColor=#737373;" parent="Aw-a2iixVGw_T6WWrJI7-113" vertex="1">
          <mxGeometry x="10" y="50" width="110" height="20" as="geometry" />
        </mxCell>
        <mxCell id="Aw-a2iixVGw_T6WWrJI7-118" value="back" style="rounded=1;whiteSpace=wrap;html=1;" parent="Aw-a2iixVGw_T6WWrJI7-113" vertex="1">
          <mxGeometry x="210" y="50" width="60" height="20" as="geometry" />
        </mxCell>
        <mxCell id="Aw-a2iixVGw_T6WWrJI7-119" value="User Flow" style="rounded=0;whiteSpace=wrap;html=1;fontSize=16;" parent="1" vertex="1">
          <mxGeometry x="20" y="830" width="640" height="40" as="geometry" />
        </mxCell>
        <mxCell id="Aw-a2iixVGw_T6WWrJI7-120" value="" style="group" parent="1" vertex="1" connectable="0">
          <mxGeometry x="20" y="920" width="300" height="230" as="geometry" />
        </mxCell>
        <mxCell id="Aw-a2iixVGw_T6WWrJI7-121" value="todos 清單" style="rounded=0;whiteSpace=wrap;html=1;container=0;" parent="Aw-a2iixVGw_T6WWrJI7-120" vertex="1">
          <mxGeometry width="300" height="40" as="geometry" />
        </mxCell>
        <mxCell id="Aw-a2iixVGw_T6WWrJI7-122" value="" style="rounded=0;whiteSpace=wrap;html=1;container=0;" parent="Aw-a2iixVGw_T6WWrJI7-120" vertex="1">
          <mxGeometry y="40" width="300" height="190" as="geometry" />
        </mxCell>
        <mxCell id="Aw-a2iixVGw_T6WWrJI7-123" value="Create" style="rounded=1;whiteSpace=wrap;html=1;container=0;" parent="Aw-a2iixVGw_T6WWrJI7-120" vertex="1">
          <mxGeometry x="10" y="50" width="60" height="20" as="geometry" />
        </mxCell>
        <mxCell id="Aw-a2iixVGw_T6WWrJI7-124" value="Todo-1" style="text;html=1;strokeColor=none;fillColor=none;align=center;verticalAlign=middle;whiteSpace=wrap;rounded=0;container=0;" parent="Aw-a2iixVGw_T6WWrJI7-120" vertex="1">
          <mxGeometry x="10" y="80" width="60" height="30" as="geometry" />
        </mxCell>
        <mxCell id="Aw-a2iixVGw_T6WWrJI7-125" value="Todo-2" style="text;html=1;strokeColor=none;fillColor=none;align=center;verticalAlign=middle;whiteSpace=wrap;rounded=0;container=0;" parent="Aw-a2iixVGw_T6WWrJI7-120" vertex="1">
          <mxGeometry x="10" y="115" width="60" height="30" as="geometry" />
        </mxCell>
        <mxCell id="Aw-a2iixVGw_T6WWrJI7-126" value="Todo-3" style="text;html=1;strokeColor=none;fillColor=none;align=center;verticalAlign=middle;whiteSpace=wrap;rounded=0;container=0;" parent="Aw-a2iixVGw_T6WWrJI7-120" vertex="1">
          <mxGeometry x="10" y="148" width="60" height="30" as="geometry" />
        </mxCell>
        <mxCell id="Aw-a2iixVGw_T6WWrJI7-127" value="Todo-4" style="text;html=1;strokeColor=none;fillColor=none;align=center;verticalAlign=middle;whiteSpace=wrap;rounded=0;container=0;" parent="Aw-a2iixVGw_T6WWrJI7-120" vertex="1">
          <mxGeometry x="10" y="185" width="60" height="30" as="geometry" />
        </mxCell>
        <mxCell id="Aw-a2iixVGw_T6WWrJI7-128" value="detail" style="rounded=1;whiteSpace=wrap;html=1;container=0;" parent="Aw-a2iixVGw_T6WWrJI7-120" vertex="1">
          <mxGeometry x="70" y="85" width="60" height="20" as="geometry" />
        </mxCell>
        <mxCell id="Aw-a2iixVGw_T6WWrJI7-129" value="edit" style="rounded=1;whiteSpace=wrap;html=1;container=0;" parent="Aw-a2iixVGw_T6WWrJI7-120" vertex="1">
          <mxGeometry x="140" y="85" width="60" height="20" as="geometry" />
        </mxCell>
        <mxCell id="Aw-a2iixVGw_T6WWrJI7-130" value="delete" style="rounded=1;whiteSpace=wrap;html=1;container=0;" parent="Aw-a2iixVGw_T6WWrJI7-120" vertex="1">
          <mxGeometry x="210" y="85" width="60" height="20" as="geometry" />
        </mxCell>
        <mxCell id="Aw-a2iixVGw_T6WWrJI7-131" value="detail" style="rounded=1;whiteSpace=wrap;html=1;container=0;" parent="Aw-a2iixVGw_T6WWrJI7-120" vertex="1">
          <mxGeometry x="70" y="120" width="60" height="20" as="geometry" />
        </mxCell>
        <mxCell id="Aw-a2iixVGw_T6WWrJI7-132" value="edit" style="rounded=1;whiteSpace=wrap;html=1;container=0;" parent="Aw-a2iixVGw_T6WWrJI7-120" vertex="1">
          <mxGeometry x="140" y="120" width="60" height="20" as="geometry" />
        </mxCell>
        <mxCell id="Aw-a2iixVGw_T6WWrJI7-133" value="delete" style="rounded=1;whiteSpace=wrap;html=1;container=0;" parent="Aw-a2iixVGw_T6WWrJI7-120" vertex="1">
          <mxGeometry x="210" y="120" width="60" height="20" as="geometry" />
        </mxCell>
        <mxCell id="Aw-a2iixVGw_T6WWrJI7-134" value="detail" style="rounded=1;whiteSpace=wrap;html=1;container=0;" parent="Aw-a2iixVGw_T6WWrJI7-120" vertex="1">
          <mxGeometry x="70" y="153" width="60" height="20" as="geometry" />
        </mxCell>
        <mxCell id="Aw-a2iixVGw_T6WWrJI7-135" value="edit" style="rounded=1;whiteSpace=wrap;html=1;container=0;" parent="Aw-a2iixVGw_T6WWrJI7-120" vertex="1">
          <mxGeometry x="140" y="153" width="60" height="20" as="geometry" />
        </mxCell>
        <mxCell id="Aw-a2iixVGw_T6WWrJI7-136" value="delete" style="rounded=1;whiteSpace=wrap;html=1;container=0;" parent="Aw-a2iixVGw_T6WWrJI7-120" vertex="1">
          <mxGeometry x="210" y="153" width="60" height="20" as="geometry" />
        </mxCell>
        <mxCell id="Aw-a2iixVGw_T6WWrJI7-137" value="detail" style="rounded=1;whiteSpace=wrap;html=1;container=0;" parent="Aw-a2iixVGw_T6WWrJI7-120" vertex="1">
          <mxGeometry x="70" y="190" width="60" height="20" as="geometry" />
        </mxCell>
        <mxCell id="Aw-a2iixVGw_T6WWrJI7-138" value="edit" style="rounded=1;whiteSpace=wrap;html=1;container=0;" parent="Aw-a2iixVGw_T6WWrJI7-120" vertex="1">
          <mxGeometry x="140" y="190" width="60" height="20" as="geometry" />
        </mxCell>
        <mxCell id="Aw-a2iixVGw_T6WWrJI7-139" value="delete" style="rounded=1;whiteSpace=wrap;html=1;container=0;" parent="Aw-a2iixVGw_T6WWrJI7-120" vertex="1">
          <mxGeometry x="210" y="190" width="60" height="20" as="geometry" />
        </mxCell>
        <mxCell id="Aw-a2iixVGw_T6WWrJI7-140" value="" style="group" parent="1" vertex="1" connectable="0">
          <mxGeometry x="360" y="920" width="300" height="230" as="geometry" />
        </mxCell>
        <mxCell id="Aw-a2iixVGw_T6WWrJI7-141" value="新增todo" style="rounded=0;whiteSpace=wrap;html=1;" parent="Aw-a2iixVGw_T6WWrJI7-140" vertex="1">
          <mxGeometry width="300" height="40" as="geometry" />
        </mxCell>
        <mxCell id="Aw-a2iixVGw_T6WWrJI7-142" value="" style="rounded=0;whiteSpace=wrap;html=1;container=0;" parent="Aw-a2iixVGw_T6WWrJI7-140" vertex="1">
          <mxGeometry y="40" width="300" height="190" as="geometry" />
        </mxCell>
        <mxCell id="Aw-a2iixVGw_T6WWrJI7-143" value="Create" style="rounded=1;whiteSpace=wrap;html=1;" parent="Aw-a2iixVGw_T6WWrJI7-140" vertex="1">
          <mxGeometry x="170" y="50" width="60" height="20" as="geometry" />
        </mxCell>
        <mxCell id="Aw-a2iixVGw_T6WWrJI7-144" value="please input name" style="rounded=0;whiteSpace=wrap;html=1;align=left;fontColor=#737373;" parent="Aw-a2iixVGw_T6WWrJI7-140" vertex="1">
          <mxGeometry x="10" y="50" width="150" height="20" as="geometry" />
        </mxCell>
        <mxCell id="Aw-a2iixVGw_T6WWrJI7-145" value="" style="group" parent="1" vertex="1" connectable="0">
          <mxGeometry x="20" y="1210" width="300" height="230" as="geometry" />
        </mxCell>
        <mxCell id="Aw-a2iixVGw_T6WWrJI7-146" value="檢視todo" style="rounded=0;whiteSpace=wrap;html=1;" parent="Aw-a2iixVGw_T6WWrJI7-145" vertex="1">
          <mxGeometry width="300" height="40" as="geometry" />
        </mxCell>
        <mxCell id="Aw-a2iixVGw_T6WWrJI7-147" value="" style="rounded=0;whiteSpace=wrap;html=1;container=0;" parent="Aw-a2iixVGw_T6WWrJI7-145" vertex="1">
          <mxGeometry y="40" width="300" height="190" as="geometry" />
        </mxCell>
        <mxCell id="Aw-a2iixVGw_T6WWrJI7-148" value="edit" style="rounded=1;whiteSpace=wrap;html=1;" parent="Aw-a2iixVGw_T6WWrJI7-145" vertex="1">
          <mxGeometry x="20" y="70" width="60" height="20" as="geometry" />
        </mxCell>
        <mxCell id="Aw-a2iixVGw_T6WWrJI7-149" value="back" style="rounded=1;whiteSpace=wrap;html=1;" parent="Aw-a2iixVGw_T6WWrJI7-145" vertex="1">
          <mxGeometry x="90" y="70" width="60" height="20" as="geometry" />
        </mxCell>
        <mxCell id="Aw-a2iixVGw_T6WWrJI7-150" value="Todo-1" style="text;html=1;strokeColor=none;fillColor=none;align=center;verticalAlign=middle;whiteSpace=wrap;rounded=0;container=0;" parent="Aw-a2iixVGw_T6WWrJI7-145" vertex="1">
          <mxGeometry x="20" y="40" width="60" height="30" as="geometry" />
        </mxCell>
        <mxCell id="Aw-a2iixVGw_T6WWrJI7-164" style="edgeStyle=orthogonalEdgeStyle;rounded=0;orthogonalLoop=1;jettySize=auto;html=1;endArrow=none;endFill=0;strokeColor=#FF0D0D;strokeWidth=3;" parent="Aw-a2iixVGw_T6WWrJI7-145" source="Aw-a2iixVGw_T6WWrJI7-151" edge="1">
          <mxGeometry relative="1" as="geometry">
            <mxPoint x="120" y="50" as="targetPoint" />
            <Array as="points">
              <mxPoint x="190" y="50" />
              <mxPoint x="121" y="50" />
            </Array>
          </mxGeometry>
        </mxCell>
        <mxCell id="Aw-a2iixVGw_T6WWrJI7-151" value="delete" style="rounded=1;whiteSpace=wrap;html=1;container=0;" parent="Aw-a2iixVGw_T6WWrJI7-145" vertex="1">
          <mxGeometry x="160" y="70" width="60" height="20" as="geometry" />
        </mxCell>
        <mxCell id="Aw-a2iixVGw_T6WWrJI7-152" value="" style="group" parent="1" vertex="1" connectable="0">
          <mxGeometry x="360" y="1210" width="300" height="230" as="geometry" />
        </mxCell>
        <mxCell id="Aw-a2iixVGw_T6WWrJI7-153" value="編輯todo" style="rounded=0;whiteSpace=wrap;html=1;" parent="Aw-a2iixVGw_T6WWrJI7-152" vertex="1">
          <mxGeometry width="300" height="40" as="geometry" />
        </mxCell>
        <mxCell id="Aw-a2iixVGw_T6WWrJI7-154" value="" style="rounded=0;whiteSpace=wrap;html=1;container=0;" parent="Aw-a2iixVGw_T6WWrJI7-152" vertex="1">
          <mxGeometry y="40" width="300" height="190" as="geometry" />
        </mxCell>
        <mxCell id="Aw-a2iixVGw_T6WWrJI7-155" value="save" style="rounded=1;whiteSpace=wrap;html=1;" parent="Aw-a2iixVGw_T6WWrJI7-152" vertex="1">
          <mxGeometry x="140" y="50" width="60" height="20" as="geometry" />
        </mxCell>
        <mxCell id="Aw-a2iixVGw_T6WWrJI7-156" value="todo-1" style="rounded=0;whiteSpace=wrap;html=1;align=left;fontColor=#737373;" parent="Aw-a2iixVGw_T6WWrJI7-152" vertex="1">
          <mxGeometry x="10" y="50" width="110" height="20" as="geometry" />
        </mxCell>
        <mxCell id="Aw-a2iixVGw_T6WWrJI7-157" value="back" style="rounded=1;whiteSpace=wrap;html=1;" parent="Aw-a2iixVGw_T6WWrJI7-152" vertex="1">
          <mxGeometry x="210" y="50" width="60" height="20" as="geometry" />
        </mxCell>
        <mxCell id="Aw-a2iixVGw_T6WWrJI7-158" style="edgeStyle=orthogonalEdgeStyle;rounded=0;orthogonalLoop=1;jettySize=auto;html=1;entryX=0.5;entryY=0;entryDx=0;entryDy=0;strokeColor=#ff0000;strokeWidth=3;" parent="1" source="Aw-a2iixVGw_T6WWrJI7-123" target="Aw-a2iixVGw_T6WWrJI7-141" edge="1">
          <mxGeometry relative="1" as="geometry">
            <Array as="points">
              <mxPoint x="60" y="900" />
              <mxPoint x="510" y="900" />
            </Array>
          </mxGeometry>
        </mxCell>
        <mxCell id="Aw-a2iixVGw_T6WWrJI7-159" style="edgeStyle=orthogonalEdgeStyle;rounded=0;orthogonalLoop=1;jettySize=auto;html=1;exitX=0.5;exitY=1;exitDx=0;exitDy=0;strokeColor=#ff0000;strokeWidth=3;" parent="1" source="Aw-a2iixVGw_T6WWrJI7-137" edge="1">
          <mxGeometry relative="1" as="geometry">
            <mxPoint x="120" y="1210" as="targetPoint" />
            <Array as="points">
              <mxPoint x="120" y="1190" />
              <mxPoint x="120" y="1190" />
            </Array>
          </mxGeometry>
        </mxCell>
        <mxCell id="Aw-a2iixVGw_T6WWrJI7-160" style="edgeStyle=orthogonalEdgeStyle;rounded=0;orthogonalLoop=1;jettySize=auto;html=1;exitX=0.75;exitY=1;exitDx=0;exitDy=0;entryX=0.5;entryY=0;entryDx=0;entryDy=0;strokeColor=#FF0D0D;strokeWidth=3;" parent="1" source="Aw-a2iixVGw_T6WWrJI7-138" target="Aw-a2iixVGw_T6WWrJI7-153" edge="1">
          <mxGeometry relative="1" as="geometry" />
        </mxCell>
        <mxCell id="Aw-a2iixVGw_T6WWrJI7-161" style="edgeStyle=orthogonalEdgeStyle;rounded=0;orthogonalLoop=1;jettySize=auto;html=1;exitX=0.5;exitY=1;exitDx=0;exitDy=0;entryX=-0.007;entryY=0.437;entryDx=0;entryDy=0;entryPerimeter=0;strokeColor=#ff0000;strokeWidth=3;" parent="1" source="Aw-a2iixVGw_T6WWrJI7-148" target="Aw-a2iixVGw_T6WWrJI7-154" edge="1">
          <mxGeometry relative="1" as="geometry" />
        </mxCell>
        <mxCell id="Aw-a2iixVGw_T6WWrJI7-165" style="edgeStyle=orthogonalEdgeStyle;rounded=0;orthogonalLoop=1;jettySize=auto;html=1;exitX=0.5;exitY=1;exitDx=0;exitDy=0;entryX=1.01;entryY=0.347;entryDx=0;entryDy=0;entryPerimeter=0;strokeColor=#FF0D0D;strokeWidth=3;" parent="1" source="Aw-a2iixVGw_T6WWrJI7-143" target="Aw-a2iixVGw_T6WWrJI7-122" edge="1">
          <mxGeometry relative="1" as="geometry" />
        </mxCell>
        <mxCell id="Aw-a2iixVGw_T6WWrJI7-162" style="edgeStyle=orthogonalEdgeStyle;rounded=0;orthogonalLoop=1;jettySize=auto;html=1;exitX=0.5;exitY=0;exitDx=0;exitDy=0;strokeColor=#FF0D0D;strokeWidth=3;entryX=0.07;entryY=1.011;entryDx=0;entryDy=0;entryPerimeter=0;" parent="1" source="Aw-a2iixVGw_T6WWrJI7-149" target="Aw-a2iixVGw_T6WWrJI7-122" edge="1">
          <mxGeometry relative="1" as="geometry">
            <mxPoint x="70" y="1150" as="targetPoint" />
            <Array as="points">
              <mxPoint x="140" y="1240" />
              <mxPoint x="41" y="1240" />
            </Array>
          </mxGeometry>
        </mxCell>
        <mxCell id="Aw-a2iixVGw_T6WWrJI7-170" style="edgeStyle=orthogonalEdgeStyle;rounded=0;orthogonalLoop=1;jettySize=auto;html=1;entryX=1;entryY=0.25;entryDx=0;entryDy=0;strokeColor=#FF0D0D;strokeWidth=3;" parent="1" source="Aw-a2iixVGw_T6WWrJI7-155" target="Aw-a2iixVGw_T6WWrJI7-147" edge="1">
          <mxGeometry relative="1" as="geometry">
            <Array as="points">
              <mxPoint x="530" y="1298" />
              <mxPoint x="410" y="1298" />
            </Array>
          </mxGeometry>
        </mxCell>
        <mxCell id="Aw-a2iixVGw_T6WWrJI7-171" style="edgeStyle=orthogonalEdgeStyle;rounded=0;orthogonalLoop=1;jettySize=auto;html=1;exitX=0.5;exitY=0;exitDx=0;exitDy=0;entryX=0.5;entryY=1;entryDx=0;entryDy=0;strokeWidth=3;strokeColor=#FF0D0D;" parent="1" source="Aw-a2iixVGw_T6WWrJI7-157" target="Aw-a2iixVGw_T6WWrJI7-122" edge="1">
          <mxGeometry relative="1" as="geometry">
            <Array as="points">
              <mxPoint x="600" y="1220" />
              <mxPoint x="170" y="1220" />
            </Array>
          </mxGeometry>
        </mxCell>
        <mxCell id="Aw-a2iixVGw_T6WWrJI7-172" value="" style="shape=table;startSize=0;container=1;collapsible=0;childLayout=tableLayout;fontSize=16;" parent="1" vertex="1">
          <mxGeometry x="20" y="1540" width="500" height="320" as="geometry" />
        </mxCell>
        <mxCell id="Aw-a2iixVGw_T6WWrJI7-173" value="" style="shape=tableRow;horizontal=0;startSize=0;swimlaneHead=0;swimlaneBody=0;strokeColor=inherit;top=0;left=0;bottom=0;right=0;collapsible=0;dropTarget=0;fillColor=none;points=[[0,0.5],[1,0.5]];portConstraint=eastwest;fontSize=16;" parent="Aw-a2iixVGw_T6WWrJI7-172" vertex="1">
          <mxGeometry width="500" height="40" as="geometry" />
        </mxCell>
        <mxCell id="Aw-a2iixVGw_T6WWrJI7-174" value="操作動作" style="shape=partialRectangle;html=1;whiteSpace=wrap;connectable=0;strokeColor=inherit;overflow=hidden;fillColor=none;top=0;left=0;bottom=0;right=0;pointerEvents=1;fontSize=16;" parent="Aw-a2iixVGw_T6WWrJI7-173" vertex="1">
          <mxGeometry width="167" height="40" as="geometry">
            <mxRectangle width="167" height="40" as="alternateBounds" />
          </mxGeometry>
        </mxCell>
        <mxCell id="Aw-a2iixVGw_T6WWrJI7-175" value="Verb" style="shape=partialRectangle;html=1;whiteSpace=wrap;connectable=0;strokeColor=inherit;overflow=hidden;fillColor=none;top=0;left=0;bottom=0;right=0;pointerEvents=1;fontSize=16;" parent="Aw-a2iixVGw_T6WWrJI7-173" vertex="1">
          <mxGeometry x="167" width="166" height="40" as="geometry">
            <mxRectangle width="166" height="40" as="alternateBounds" />
          </mxGeometry>
        </mxCell>
        <mxCell id="Aw-a2iixVGw_T6WWrJI7-176" value="URL" style="shape=partialRectangle;html=1;whiteSpace=wrap;connectable=0;strokeColor=inherit;overflow=hidden;fillColor=none;top=0;left=0;bottom=0;right=0;pointerEvents=1;fontSize=16;" parent="Aw-a2iixVGw_T6WWrJI7-173" vertex="1">
          <mxGeometry x="333" width="167" height="40" as="geometry">
            <mxRectangle width="167" height="40" as="alternateBounds" />
          </mxGeometry>
        </mxCell>
        <mxCell id="Aw-a2iixVGw_T6WWrJI7-177" value="" style="shape=tableRow;horizontal=0;startSize=0;swimlaneHead=0;swimlaneBody=0;strokeColor=inherit;top=0;left=0;bottom=0;right=0;collapsible=0;dropTarget=0;fillColor=none;points=[[0,0.5],[1,0.5]];portConstraint=eastwest;fontSize=16;" parent="Aw-a2iixVGw_T6WWrJI7-172" vertex="1">
          <mxGeometry y="40" width="500" height="40" as="geometry" />
        </mxCell>
        <mxCell id="Aw-a2iixVGw_T6WWrJI7-178" value="取得todos清單頁" style="shape=partialRectangle;html=1;whiteSpace=wrap;connectable=0;strokeColor=inherit;overflow=hidden;fillColor=none;top=0;left=0;bottom=0;right=0;pointerEvents=1;fontSize=16;" parent="Aw-a2iixVGw_T6WWrJI7-177" vertex="1">
          <mxGeometry width="167" height="40" as="geometry">
            <mxRectangle width="167" height="40" as="alternateBounds" />
          </mxGeometry>
        </mxCell>
        <mxCell id="Aw-a2iixVGw_T6WWrJI7-179" value="GET" style="shape=partialRectangle;html=1;whiteSpace=wrap;connectable=0;strokeColor=inherit;overflow=hidden;fillColor=none;top=0;left=0;bottom=0;right=0;pointerEvents=1;fontSize=16;" parent="Aw-a2iixVGw_T6WWrJI7-177" vertex="1">
          <mxGeometry x="167" width="166" height="40" as="geometry">
            <mxRectangle width="166" height="40" as="alternateBounds" />
          </mxGeometry>
        </mxCell>
        <mxCell id="Aw-a2iixVGw_T6WWrJI7-180" value="/todos" style="shape=partialRectangle;html=1;whiteSpace=wrap;connectable=0;strokeColor=inherit;overflow=hidden;fillColor=none;top=0;left=0;bottom=0;right=0;pointerEvents=1;fontSize=16;" parent="Aw-a2iixVGw_T6WWrJI7-177" vertex="1">
          <mxGeometry x="333" width="167" height="40" as="geometry">
            <mxRectangle width="167" height="40" as="alternateBounds" />
          </mxGeometry>
        </mxCell>
        <mxCell id="Aw-a2iixVGw_T6WWrJI7-181" value="" style="shape=tableRow;horizontal=0;startSize=0;swimlaneHead=0;swimlaneBody=0;strokeColor=inherit;top=0;left=0;bottom=0;right=0;collapsible=0;dropTarget=0;fillColor=none;points=[[0,0.5],[1,0.5]];portConstraint=eastwest;fontSize=16;" parent="Aw-a2iixVGw_T6WWrJI7-172" vertex="1">
          <mxGeometry y="80" width="500" height="40" as="geometry" />
        </mxCell>
        <mxCell id="Aw-a2iixVGw_T6WWrJI7-182" value="取得todos新增頁" style="shape=partialRectangle;html=1;whiteSpace=wrap;connectable=0;strokeColor=inherit;overflow=hidden;fillColor=none;top=0;left=0;bottom=0;right=0;pointerEvents=1;fontSize=16;" parent="Aw-a2iixVGw_T6WWrJI7-181" vertex="1">
          <mxGeometry width="167" height="40" as="geometry">
            <mxRectangle width="167" height="40" as="alternateBounds" />
          </mxGeometry>
        </mxCell>
        <mxCell id="Aw-a2iixVGw_T6WWrJI7-183" value="GET" style="shape=partialRectangle;html=1;whiteSpace=wrap;connectable=0;strokeColor=inherit;overflow=hidden;fillColor=none;top=0;left=0;bottom=0;right=0;pointerEvents=1;fontSize=16;" parent="Aw-a2iixVGw_T6WWrJI7-181" vertex="1">
          <mxGeometry x="167" width="166" height="40" as="geometry">
            <mxRectangle width="166" height="40" as="alternateBounds" />
          </mxGeometry>
        </mxCell>
        <mxCell id="Aw-a2iixVGw_T6WWrJI7-184" value="/todos/new" style="shape=partialRectangle;html=1;whiteSpace=wrap;connectable=0;strokeColor=inherit;overflow=hidden;fillColor=none;top=0;left=0;bottom=0;right=0;pointerEvents=1;fontSize=16;" parent="Aw-a2iixVGw_T6WWrJI7-181" vertex="1">
          <mxGeometry x="333" width="167" height="40" as="geometry">
            <mxRectangle width="167" height="40" as="alternateBounds" />
          </mxGeometry>
        </mxCell>
        <mxCell id="Aw-a2iixVGw_T6WWrJI7-187" style="shape=tableRow;horizontal=0;startSize=0;swimlaneHead=0;swimlaneBody=0;strokeColor=inherit;top=0;left=0;bottom=0;right=0;collapsible=0;dropTarget=0;fillColor=none;points=[[0,0.5],[1,0.5]];portConstraint=eastwest;fontSize=16;" parent="Aw-a2iixVGw_T6WWrJI7-172" vertex="1">
          <mxGeometry y="120" width="500" height="40" as="geometry" />
        </mxCell>
        <mxCell id="Aw-a2iixVGw_T6WWrJI7-188" value="取得todos檢視頁" style="shape=partialRectangle;html=1;whiteSpace=wrap;connectable=0;strokeColor=inherit;overflow=hidden;fillColor=none;top=0;left=0;bottom=0;right=0;pointerEvents=1;fontSize=16;" parent="Aw-a2iixVGw_T6WWrJI7-187" vertex="1">
          <mxGeometry width="167" height="40" as="geometry">
            <mxRectangle width="167" height="40" as="alternateBounds" />
          </mxGeometry>
        </mxCell>
        <mxCell id="Aw-a2iixVGw_T6WWrJI7-189" value="GET" style="shape=partialRectangle;html=1;whiteSpace=wrap;connectable=0;strokeColor=inherit;overflow=hidden;fillColor=none;top=0;left=0;bottom=0;right=0;pointerEvents=1;fontSize=16;" parent="Aw-a2iixVGw_T6WWrJI7-187" vertex="1">
          <mxGeometry x="167" width="166" height="40" as="geometry">
            <mxRectangle width="166" height="40" as="alternateBounds" />
          </mxGeometry>
        </mxCell>
        <mxCell id="Aw-a2iixVGw_T6WWrJI7-190" value="/todos/:id" style="shape=partialRectangle;html=1;whiteSpace=wrap;connectable=0;strokeColor=inherit;overflow=hidden;fillColor=none;top=0;left=0;bottom=0;right=0;pointerEvents=1;fontSize=16;" parent="Aw-a2iixVGw_T6WWrJI7-187" vertex="1">
          <mxGeometry x="333" width="167" height="40" as="geometry">
            <mxRectangle width="167" height="40" as="alternateBounds" />
          </mxGeometry>
        </mxCell>
        <mxCell id="Aw-a2iixVGw_T6WWrJI7-203" style="shape=tableRow;horizontal=0;startSize=0;swimlaneHead=0;swimlaneBody=0;strokeColor=inherit;top=0;left=0;bottom=0;right=0;collapsible=0;dropTarget=0;fillColor=none;points=[[0,0.5],[1,0.5]];portConstraint=eastwest;fontSize=16;" parent="Aw-a2iixVGw_T6WWrJI7-172" vertex="1">
          <mxGeometry y="160" width="500" height="40" as="geometry" />
        </mxCell>
        <mxCell id="Aw-a2iixVGw_T6WWrJI7-204" value="取得todos編輯頁" style="shape=partialRectangle;html=1;whiteSpace=wrap;connectable=0;strokeColor=inherit;overflow=hidden;fillColor=none;top=0;left=0;bottom=0;right=0;pointerEvents=1;fontSize=16;" parent="Aw-a2iixVGw_T6WWrJI7-203" vertex="1">
          <mxGeometry width="167" height="40" as="geometry">
            <mxRectangle width="167" height="40" as="alternateBounds" />
          </mxGeometry>
        </mxCell>
        <mxCell id="Aw-a2iixVGw_T6WWrJI7-205" value="GET" style="shape=partialRectangle;html=1;whiteSpace=wrap;connectable=0;strokeColor=inherit;overflow=hidden;fillColor=none;top=0;left=0;bottom=0;right=0;pointerEvents=1;fontSize=16;" parent="Aw-a2iixVGw_T6WWrJI7-203" vertex="1">
          <mxGeometry x="167" width="166" height="40" as="geometry">
            <mxRectangle width="166" height="40" as="alternateBounds" />
          </mxGeometry>
        </mxCell>
        <mxCell id="Aw-a2iixVGw_T6WWrJI7-206" value="/todos/:id/edit" style="shape=partialRectangle;html=1;whiteSpace=wrap;connectable=0;strokeColor=inherit;overflow=hidden;fillColor=none;top=0;left=0;bottom=0;right=0;pointerEvents=1;fontSize=16;" parent="Aw-a2iixVGw_T6WWrJI7-203" vertex="1">
          <mxGeometry x="333" width="167" height="40" as="geometry">
            <mxRectangle width="167" height="40" as="alternateBounds" />
          </mxGeometry>
        </mxCell>
        <mxCell id="Aw-a2iixVGw_T6WWrJI7-191" style="shape=tableRow;horizontal=0;startSize=0;swimlaneHead=0;swimlaneBody=0;strokeColor=inherit;top=0;left=0;bottom=0;right=0;collapsible=0;dropTarget=0;fillColor=none;points=[[0,0.5],[1,0.5]];portConstraint=eastwest;fontSize=16;" parent="Aw-a2iixVGw_T6WWrJI7-172" vertex="1">
          <mxGeometry y="200" width="500" height="40" as="geometry" />
        </mxCell>
        <mxCell id="Aw-a2iixVGw_T6WWrJI7-192" value="新增todo" style="shape=partialRectangle;html=1;whiteSpace=wrap;connectable=0;strokeColor=inherit;overflow=hidden;fillColor=none;top=0;left=0;bottom=0;right=0;pointerEvents=1;fontSize=16;" parent="Aw-a2iixVGw_T6WWrJI7-191" vertex="1">
          <mxGeometry width="167" height="40" as="geometry">
            <mxRectangle width="167" height="40" as="alternateBounds" />
          </mxGeometry>
        </mxCell>
        <mxCell id="Aw-a2iixVGw_T6WWrJI7-193" value="POST" style="shape=partialRectangle;html=1;whiteSpace=wrap;connectable=0;strokeColor=inherit;overflow=hidden;fillColor=none;top=0;left=0;bottom=0;right=0;pointerEvents=1;fontSize=16;" parent="Aw-a2iixVGw_T6WWrJI7-191" vertex="1">
          <mxGeometry x="167" width="166" height="40" as="geometry">
            <mxRectangle width="166" height="40" as="alternateBounds" />
          </mxGeometry>
        </mxCell>
        <mxCell id="Aw-a2iixVGw_T6WWrJI7-194" value="/todos" style="shape=partialRectangle;html=1;whiteSpace=wrap;connectable=0;strokeColor=inherit;overflow=hidden;fillColor=none;top=0;left=0;bottom=0;right=0;pointerEvents=1;fontSize=16;" parent="Aw-a2iixVGw_T6WWrJI7-191" vertex="1">
          <mxGeometry x="333" width="167" height="40" as="geometry">
            <mxRectangle width="167" height="40" as="alternateBounds" />
          </mxGeometry>
        </mxCell>
        <mxCell id="Aw-a2iixVGw_T6WWrJI7-195" style="shape=tableRow;horizontal=0;startSize=0;swimlaneHead=0;swimlaneBody=0;strokeColor=inherit;top=0;left=0;bottom=0;right=0;collapsible=0;dropTarget=0;fillColor=none;points=[[0,0.5],[1,0.5]];portConstraint=eastwest;fontSize=16;" parent="Aw-a2iixVGw_T6WWrJI7-172" vertex="1">
          <mxGeometry y="240" width="500" height="40" as="geometry" />
        </mxCell>
        <mxCell id="Aw-a2iixVGw_T6WWrJI7-196" value="編輯todo" style="shape=partialRectangle;html=1;whiteSpace=wrap;connectable=0;strokeColor=inherit;overflow=hidden;fillColor=none;top=0;left=0;bottom=0;right=0;pointerEvents=1;fontSize=16;" parent="Aw-a2iixVGw_T6WWrJI7-195" vertex="1">
          <mxGeometry width="167" height="40" as="geometry">
            <mxRectangle width="167" height="40" as="alternateBounds" />
          </mxGeometry>
        </mxCell>
        <mxCell id="Aw-a2iixVGw_T6WWrJI7-197" value="PUT" style="shape=partialRectangle;html=1;whiteSpace=wrap;connectable=0;strokeColor=inherit;overflow=hidden;fillColor=none;top=0;left=0;bottom=0;right=0;pointerEvents=1;fontSize=16;" parent="Aw-a2iixVGw_T6WWrJI7-195" vertex="1">
          <mxGeometry x="167" width="166" height="40" as="geometry">
            <mxRectangle width="166" height="40" as="alternateBounds" />
          </mxGeometry>
        </mxCell>
        <mxCell id="Aw-a2iixVGw_T6WWrJI7-198" value="/todos/:id" style="shape=partialRectangle;html=1;whiteSpace=wrap;connectable=0;strokeColor=inherit;overflow=hidden;fillColor=none;top=0;left=0;bottom=0;right=0;pointerEvents=1;fontSize=16;" parent="Aw-a2iixVGw_T6WWrJI7-195" vertex="1">
          <mxGeometry x="333" width="167" height="40" as="geometry">
            <mxRectangle width="167" height="40" as="alternateBounds" />
          </mxGeometry>
        </mxCell>
        <mxCell id="Aw-a2iixVGw_T6WWrJI7-199" style="shape=tableRow;horizontal=0;startSize=0;swimlaneHead=0;swimlaneBody=0;strokeColor=inherit;top=0;left=0;bottom=0;right=0;collapsible=0;dropTarget=0;fillColor=none;points=[[0,0.5],[1,0.5]];portConstraint=eastwest;fontSize=16;" parent="Aw-a2iixVGw_T6WWrJI7-172" vertex="1">
          <mxGeometry y="280" width="500" height="40" as="geometry" />
        </mxCell>
        <mxCell id="Aw-a2iixVGw_T6WWrJI7-200" value="刪除todo" style="shape=partialRectangle;html=1;whiteSpace=wrap;connectable=0;strokeColor=inherit;overflow=hidden;fillColor=none;top=0;left=0;bottom=0;right=0;pointerEvents=1;fontSize=16;" parent="Aw-a2iixVGw_T6WWrJI7-199" vertex="1">
          <mxGeometry width="167" height="40" as="geometry">
            <mxRectangle width="167" height="40" as="alternateBounds" />
          </mxGeometry>
        </mxCell>
        <mxCell id="Aw-a2iixVGw_T6WWrJI7-201" value="DELETE" style="shape=partialRectangle;html=1;whiteSpace=wrap;connectable=0;strokeColor=inherit;overflow=hidden;fillColor=none;top=0;left=0;bottom=0;right=0;pointerEvents=1;fontSize=16;" parent="Aw-a2iixVGw_T6WWrJI7-199" vertex="1">
          <mxGeometry x="167" width="166" height="40" as="geometry">
            <mxRectangle width="166" height="40" as="alternateBounds" />
          </mxGeometry>
        </mxCell>
        <mxCell id="Aw-a2iixVGw_T6WWrJI7-202" value="/todos/:id" style="shape=partialRectangle;html=1;whiteSpace=wrap;connectable=0;strokeColor=inherit;overflow=hidden;fillColor=none;top=0;left=0;bottom=0;right=0;pointerEvents=1;fontSize=16;" parent="Aw-a2iixVGw_T6WWrJI7-199" vertex="1">
          <mxGeometry x="333" width="167" height="40" as="geometry">
            <mxRectangle width="167" height="40" as="alternateBounds" />
          </mxGeometry>
        </mxCell>
        <mxCell id="Aw-a2iixVGw_T6WWrJI7-186" value="設計todo list 路由" style="rounded=0;whiteSpace=wrap;html=1;fontSize=16;" parent="1" vertex="1">
          <mxGeometry x="20" y="1490" width="500" height="40" as="geometry" />
        </mxCell>
        <mxCell id="LBEahy_goc1p-DvRM5PB-32" value="" style="group" parent="1" vertex="1" connectable="0">
          <mxGeometry x="720" y="290" width="340" height="230" as="geometry" />
        </mxCell>
        <mxCell id="LBEahy_goc1p-DvRM5PB-33" value="todos 清單" style="rounded=0;whiteSpace=wrap;html=1;container=0;" parent="LBEahy_goc1p-DvRM5PB-32" vertex="1">
          <mxGeometry width="340" height="40" as="geometry" />
        </mxCell>
        <mxCell id="LBEahy_goc1p-DvRM5PB-34" value="" style="rounded=0;whiteSpace=wrap;html=1;container=0;" parent="LBEahy_goc1p-DvRM5PB-32" vertex="1">
          <mxGeometry y="40" width="340" height="190" as="geometry" />
        </mxCell>
        <mxCell id="LBEahy_goc1p-DvRM5PB-35" value="Create" style="rounded=1;whiteSpace=wrap;html=1;container=0;" parent="LBEahy_goc1p-DvRM5PB-32" vertex="1">
          <mxGeometry x="11.333333333333332" y="50" width="68" height="20" as="geometry" />
        </mxCell>
        <mxCell id="LBEahy_goc1p-DvRM5PB-36" value="Todo-1" style="text;html=1;strokeColor=none;fillColor=none;align=center;verticalAlign=middle;whiteSpace=wrap;rounded=0;container=0;" parent="LBEahy_goc1p-DvRM5PB-32" vertex="1">
          <mxGeometry x="30.003333333333334" y="80" width="68" height="30" as="geometry" />
        </mxCell>
        <mxCell id="LBEahy_goc1p-DvRM5PB-37" value="Todo-2" style="text;html=1;strokeColor=none;fillColor=none;align=center;verticalAlign=middle;whiteSpace=wrap;rounded=0;container=0;" parent="LBEahy_goc1p-DvRM5PB-32" vertex="1">
          <mxGeometry x="30.003333333333334" y="115" width="68" height="30" as="geometry" />
        </mxCell>
        <mxCell id="LBEahy_goc1p-DvRM5PB-38" value="Todo-3" style="text;html=1;strokeColor=none;fillColor=none;align=center;verticalAlign=middle;whiteSpace=wrap;rounded=0;container=0;" parent="LBEahy_goc1p-DvRM5PB-32" vertex="1">
          <mxGeometry x="30.003333333333334" y="148" width="68" height="30" as="geometry" />
        </mxCell>
        <mxCell id="LBEahy_goc1p-DvRM5PB-39" value="Todo-4" style="text;html=1;strokeColor=none;fillColor=none;align=center;verticalAlign=middle;whiteSpace=wrap;rounded=0;container=0;" parent="LBEahy_goc1p-DvRM5PB-32" vertex="1">
          <mxGeometry x="30.003333333333334" y="185" width="68" height="30" as="geometry" />
        </mxCell>
        <mxCell id="LBEahy_goc1p-DvRM5PB-40" value="detail" style="rounded=1;whiteSpace=wrap;html=1;container=0;" parent="LBEahy_goc1p-DvRM5PB-32" vertex="1">
          <mxGeometry x="98.00333333333333" y="85" width="68" height="20" as="geometry" />
        </mxCell>
        <mxCell id="LBEahy_goc1p-DvRM5PB-41" value="edit" style="rounded=1;whiteSpace=wrap;html=1;container=0;" parent="LBEahy_goc1p-DvRM5PB-32" vertex="1">
          <mxGeometry x="177.33666666666664" y="85" width="68" height="20" as="geometry" />
        </mxCell>
        <mxCell id="LBEahy_goc1p-DvRM5PB-42" value="delete" style="rounded=1;whiteSpace=wrap;html=1;container=0;" parent="LBEahy_goc1p-DvRM5PB-32" vertex="1">
          <mxGeometry x="256.67" y="85" width="68" height="20" as="geometry" />
        </mxCell>
        <mxCell id="LBEahy_goc1p-DvRM5PB-43" value="detail" style="rounded=1;whiteSpace=wrap;html=1;container=0;" parent="LBEahy_goc1p-DvRM5PB-32" vertex="1">
          <mxGeometry x="98.00333333333333" y="120" width="68" height="20" as="geometry" />
        </mxCell>
        <mxCell id="LBEahy_goc1p-DvRM5PB-44" value="edit" style="rounded=1;whiteSpace=wrap;html=1;container=0;" parent="LBEahy_goc1p-DvRM5PB-32" vertex="1">
          <mxGeometry x="177.33666666666664" y="120" width="68" height="20" as="geometry" />
        </mxCell>
        <mxCell id="LBEahy_goc1p-DvRM5PB-45" value="delete" style="rounded=1;whiteSpace=wrap;html=1;container=0;" parent="LBEahy_goc1p-DvRM5PB-32" vertex="1">
          <mxGeometry x="256.67" y="120" width="68" height="20" as="geometry" />
        </mxCell>
        <mxCell id="LBEahy_goc1p-DvRM5PB-46" value="detail" style="rounded=1;whiteSpace=wrap;html=1;container=0;" parent="LBEahy_goc1p-DvRM5PB-32" vertex="1">
          <mxGeometry x="98.00333333333333" y="153" width="68" height="20" as="geometry" />
        </mxCell>
        <mxCell id="LBEahy_goc1p-DvRM5PB-47" value="edit" style="rounded=1;whiteSpace=wrap;html=1;container=0;" parent="LBEahy_goc1p-DvRM5PB-32" vertex="1">
          <mxGeometry x="177.33666666666664" y="153" width="68" height="20" as="geometry" />
        </mxCell>
        <mxCell id="LBEahy_goc1p-DvRM5PB-48" value="delete" style="rounded=1;whiteSpace=wrap;html=1;container=0;" parent="LBEahy_goc1p-DvRM5PB-32" vertex="1">
          <mxGeometry x="256.67" y="153" width="68" height="20" as="geometry" />
        </mxCell>
        <mxCell id="LBEahy_goc1p-DvRM5PB-49" value="detail" style="rounded=1;whiteSpace=wrap;html=1;container=0;" parent="LBEahy_goc1p-DvRM5PB-32" vertex="1">
          <mxGeometry x="98.00333333333333" y="190" width="68" height="20" as="geometry" />
        </mxCell>
        <mxCell id="LBEahy_goc1p-DvRM5PB-50" value="edit" style="rounded=1;whiteSpace=wrap;html=1;container=0;" parent="LBEahy_goc1p-DvRM5PB-32" vertex="1">
          <mxGeometry x="177.33666666666664" y="190" width="68" height="20" as="geometry" />
        </mxCell>
        <mxCell id="LBEahy_goc1p-DvRM5PB-51" value="delete" style="rounded=1;whiteSpace=wrap;html=1;container=0;" parent="LBEahy_goc1p-DvRM5PB-32" vertex="1">
          <mxGeometry x="256.67" y="190" width="68" height="20" as="geometry" />
        </mxCell>
        <mxCell id="LBEahy_goc1p-DvRM5PB-52" value="" style="rounded=0;whiteSpace=wrap;html=1;" parent="LBEahy_goc1p-DvRM5PB-32" vertex="1">
          <mxGeometry x="11.330000000000041" y="85" width="20" height="20" as="geometry" />
        </mxCell>
        <mxCell id="LBEahy_goc1p-DvRM5PB-53" value="" style="rounded=0;whiteSpace=wrap;html=1;" parent="LBEahy_goc1p-DvRM5PB-32" vertex="1">
          <mxGeometry x="11.330000000000041" y="120" width="20" height="20" as="geometry" />
        </mxCell>
        <mxCell id="LBEahy_goc1p-DvRM5PB-54" value="" style="rounded=0;whiteSpace=wrap;html=1;" parent="LBEahy_goc1p-DvRM5PB-32" vertex="1">
          <mxGeometry x="11.330000000000041" y="153" width="20" height="20" as="geometry" />
        </mxCell>
        <mxCell id="LBEahy_goc1p-DvRM5PB-55" value="" style="rounded=0;whiteSpace=wrap;html=1;" parent="LBEahy_goc1p-DvRM5PB-32" vertex="1">
          <mxGeometry x="11.330000000000041" y="190" width="20" height="20" as="geometry" />
        </mxCell>
        <mxCell id="LBEahy_goc1p-DvRM5PB-58" value="&lt;span style=&quot;color: rgb(77, 81, 86); font-family: arial, sans-serif; font-size: 14px; font-style: normal; font-variant-ligatures: normal; font-variant-caps: normal; font-weight: 400; letter-spacing: normal; orphans: 2; text-align: left; text-indent: 0px; text-transform: none; widows: 2; word-spacing: 0px; -webkit-text-stroke-width: 0px; background-color: rgb(255, 255, 255); text-decoration-thickness: initial; text-decoration-style: initial; text-decoration-color: initial; float: none; display: inline !important;&quot;&gt;✓&lt;/span&gt;" style="text;whiteSpace=wrap;html=1;" parent="LBEahy_goc1p-DvRM5PB-32" vertex="1">
          <mxGeometry x="15.329999999999927" y="115" width="40" height="40" as="geometry" />
        </mxCell>
        <mxCell id="LBEahy_goc1p-DvRM5PB-56" value="Wireframe (2023.8.26)" style="rounded=0;whiteSpace=wrap;html=1;fontSize=16;" parent="1" vertex="1">
          <mxGeometry x="720" y="230" width="720" height="40" as="geometry" />
        </mxCell>
        <mxCell id="LBEahy_goc1p-DvRM5PB-59" value="" style="group" parent="1" vertex="1" connectable="0">
          <mxGeometry x="720" y="560" width="340" height="230" as="geometry" />
        </mxCell>
        <mxCell id="LBEahy_goc1p-DvRM5PB-60" value="檢視todo" style="rounded=0;whiteSpace=wrap;html=1;" parent="LBEahy_goc1p-DvRM5PB-59" vertex="1">
          <mxGeometry width="340" height="40" as="geometry" />
        </mxCell>
        <mxCell id="LBEahy_goc1p-DvRM5PB-61" value="" style="rounded=0;whiteSpace=wrap;html=1;container=0;" parent="LBEahy_goc1p-DvRM5PB-59" vertex="1">
          <mxGeometry y="40" width="340" height="190" as="geometry" />
        </mxCell>
        <mxCell id="LBEahy_goc1p-DvRM5PB-62" value="edit" style="rounded=1;whiteSpace=wrap;html=1;" parent="LBEahy_goc1p-DvRM5PB-59" vertex="1">
          <mxGeometry x="23.666666666666664" y="70" width="68" height="20" as="geometry" />
        </mxCell>
        <mxCell id="LBEahy_goc1p-DvRM5PB-63" value="back" style="rounded=1;whiteSpace=wrap;html=1;" parent="LBEahy_goc1p-DvRM5PB-59" vertex="1">
          <mxGeometry x="103" y="70" width="68" height="20" as="geometry" />
        </mxCell>
        <mxCell id="LBEahy_goc1p-DvRM5PB-64" value="Todo-1" style="text;html=1;strokeColor=none;fillColor=none;align=center;verticalAlign=middle;whiteSpace=wrap;rounded=0;container=0;" parent="LBEahy_goc1p-DvRM5PB-59" vertex="1">
          <mxGeometry x="39.666666666666664" y="40" width="68" height="30" as="geometry" />
        </mxCell>
        <mxCell id="LBEahy_goc1p-DvRM5PB-65" value="delete" style="rounded=1;whiteSpace=wrap;html=1;container=0;" parent="LBEahy_goc1p-DvRM5PB-59" vertex="1">
          <mxGeometry x="182.33333333333331" y="70" width="68" height="20" as="geometry" />
        </mxCell>
        <mxCell id="LBEahy_goc1p-DvRM5PB-74" value="" style="rounded=0;whiteSpace=wrap;html=1;" parent="LBEahy_goc1p-DvRM5PB-59" vertex="1">
          <mxGeometry x="23.670000000000073" y="45" width="20" height="20" as="geometry" />
        </mxCell>
        <mxCell id="LBEahy_goc1p-DvRM5PB-66" value="" style="group" parent="1" vertex="1" connectable="0">
          <mxGeometry x="1090" y="560" width="350" height="230" as="geometry" />
        </mxCell>
        <mxCell id="LBEahy_goc1p-DvRM5PB-67" value="編輯todo" style="rounded=0;whiteSpace=wrap;html=1;" parent="LBEahy_goc1p-DvRM5PB-66" vertex="1">
          <mxGeometry width="350" height="40" as="geometry" />
        </mxCell>
        <mxCell id="LBEahy_goc1p-DvRM5PB-68" value="" style="rounded=0;whiteSpace=wrap;html=1;container=0;" parent="LBEahy_goc1p-DvRM5PB-66" vertex="1">
          <mxGeometry y="40" width="350" height="190" as="geometry" />
        </mxCell>
        <mxCell id="LBEahy_goc1p-DvRM5PB-75" value="" style="rounded=0;whiteSpace=wrap;html=1;" parent="LBEahy_goc1p-DvRM5PB-66" vertex="1">
          <mxGeometry x="12" y="50" width="20" height="20" as="geometry" />
        </mxCell>
        <mxCell id="LBEahy_goc1p-DvRM5PB-76" value="&lt;span style=&quot;color: rgb(77, 81, 86); font-family: arial, sans-serif; font-size: 14px; font-style: normal; font-variant-ligatures: normal; font-variant-caps: normal; font-weight: 400; letter-spacing: normal; orphans: 2; text-align: left; text-indent: 0px; text-transform: none; widows: 2; word-spacing: 0px; -webkit-text-stroke-width: 0px; background-color: rgb(255, 255, 255); text-decoration-thickness: initial; text-decoration-style: initial; text-decoration-color: initial; float: none; display: inline !important;&quot;&gt;✓&lt;/span&gt;" style="text;whiteSpace=wrap;html=1;" parent="LBEahy_goc1p-DvRM5PB-66" vertex="1">
          <mxGeometry x="16.329999999999927" y="45" width="40" height="40" as="geometry" />
        </mxCell>
        <mxCell id="LBEahy_goc1p-DvRM5PB-73" value="&lt;span style=&quot;color: rgb(77, 81, 86); font-family: arial, sans-serif; font-size: 14px; font-style: normal; font-variant-ligatures: normal; font-variant-caps: normal; font-weight: 400; letter-spacing: normal; orphans: 2; text-align: left; text-indent: 0px; text-transform: none; widows: 2; word-spacing: 0px; -webkit-text-stroke-width: 0px; background-color: rgb(255, 255, 255); text-decoration-thickness: initial; text-decoration-style: initial; text-decoration-color: initial; float: none; display: inline !important;&quot;&gt;✓&lt;/span&gt;" style="text;whiteSpace=wrap;html=1;" parent="1" vertex="1">
          <mxGeometry x="748" y="600" width="40" height="40" as="geometry" />
        </mxCell>
        <mxCell id="LBEahy_goc1p-DvRM5PB-69" value="save" style="rounded=1;whiteSpace=wrap;html=1;" parent="1" vertex="1">
          <mxGeometry x="1283.3333333333333" y="610" width="70" height="20" as="geometry" />
        </mxCell>
        <mxCell id="LBEahy_goc1p-DvRM5PB-70" value="todo-1" style="rounded=0;whiteSpace=wrap;html=1;align=left;fontColor=#737373;" parent="1" vertex="1">
          <mxGeometry x="1131.6666666666667" y="610" width="128.33333333333334" height="20" as="geometry" />
        </mxCell>
        <mxCell id="LBEahy_goc1p-DvRM5PB-71" value="back" style="rounded=1;whiteSpace=wrap;html=1;" parent="1" vertex="1">
          <mxGeometry x="1365" y="610" width="70" height="20" as="geometry" />
        </mxCell>
        <mxCell id="LBEahy_goc1p-DvRM5PB-77" value="User Story 新增需求(2023.8.26)" style="shape=table;startSize=30;container=1;collapsible=0;childLayout=tableLayout;fixedRows=1;rowLines=0;fontStyle=0;strokeColor=default;fontSize=16;" parent="1" vertex="1">
          <mxGeometry x="720" y="-100" width="300" height="120" as="geometry" />
        </mxCell>
        <mxCell id="LBEahy_goc1p-DvRM5PB-78" style="shape=tableRow;horizontal=0;startSize=0;swimlaneHead=0;swimlaneBody=0;top=0;left=0;bottom=0;right=0;collapsible=0;dropTarget=0;fillColor=none;points=[[0,0.5],[1,0.5]];portConstraint=eastwest;strokeColor=inherit;fontSize=16;" parent="LBEahy_goc1p-DvRM5PB-77" vertex="1">
          <mxGeometry y="30" width="300" height="30" as="geometry" />
        </mxCell>
        <mxCell id="LBEahy_goc1p-DvRM5PB-79" value="No." style="shape=partialRectangle;html=1;whiteSpace=wrap;connectable=0;fillColor=none;top=0;left=0;bottom=0;right=0;overflow=hidden;pointerEvents=1;strokeColor=inherit;fontSize=16;" parent="LBEahy_goc1p-DvRM5PB-78" vertex="1">
          <mxGeometry width="32" height="30" as="geometry">
            <mxRectangle width="32" height="30" as="alternateBounds" />
          </mxGeometry>
        </mxCell>
        <mxCell id="LBEahy_goc1p-DvRM5PB-80" value="項目" style="shape=partialRectangle;html=1;whiteSpace=wrap;connectable=0;fillColor=none;top=0;left=0;bottom=0;right=0;align=left;spacingLeft=6;overflow=hidden;strokeColor=inherit;fontSize=16;" parent="LBEahy_goc1p-DvRM5PB-78" vertex="1">
          <mxGeometry x="32" width="268" height="30" as="geometry">
            <mxRectangle width="268" height="30" as="alternateBounds" />
          </mxGeometry>
        </mxCell>
        <mxCell id="LBEahy_goc1p-DvRM5PB-108" style="shape=tableRow;horizontal=0;startSize=0;swimlaneHead=0;swimlaneBody=0;top=0;left=0;bottom=0;right=0;collapsible=0;dropTarget=0;fillColor=none;points=[[0,0.5],[1,0.5]];portConstraint=eastwest;strokeColor=inherit;fontSize=16;" parent="LBEahy_goc1p-DvRM5PB-77" vertex="1">
          <mxGeometry y="60" width="300" height="30" as="geometry" />
        </mxCell>
        <mxCell id="LBEahy_goc1p-DvRM5PB-109" value="6" style="shape=partialRectangle;html=1;whiteSpace=wrap;connectable=0;fillColor=none;top=0;left=0;bottom=0;right=0;overflow=hidden;strokeColor=inherit;fontSize=16;" parent="LBEahy_goc1p-DvRM5PB-108" vertex="1">
          <mxGeometry width="32" height="30" as="geometry">
            <mxRectangle width="32" height="30" as="alternateBounds" />
          </mxGeometry>
        </mxCell>
        <mxCell id="LBEahy_goc1p-DvRM5PB-110" value="&lt;span style=&quot;color: rgb(0, 0, 0); font-family: Helvetica; font-size: 16px; font-style: normal; font-variant-ligatures: normal; font-variant-caps: normal; font-weight: 400; letter-spacing: normal; orphans: 2; text-align: left; text-indent: 0px; text-transform: none; widows: 2; word-spacing: 0px; -webkit-text-stroke-width: 0px; background-color: rgb(251, 251, 251); text-decoration-thickness: initial; text-decoration-style: initial; text-decoration-color: initial; float: none; display: inline !important;&quot;&gt;使用者可以檢視 todos 的完成狀態&lt;/span&gt;" style="shape=partialRectangle;html=1;whiteSpace=wrap;connectable=0;fillColor=none;top=0;left=0;bottom=0;right=0;align=left;spacingLeft=6;overflow=hidden;strokeColor=inherit;fontSize=16;" parent="LBEahy_goc1p-DvRM5PB-108" vertex="1">
          <mxGeometry x="32" width="268" height="30" as="geometry">
            <mxRectangle width="268" height="30" as="alternateBounds" />
          </mxGeometry>
        </mxCell>
        <mxCell id="LBEahy_goc1p-DvRM5PB-113" style="shape=tableRow;horizontal=0;startSize=0;swimlaneHead=0;swimlaneBody=0;top=0;left=0;bottom=0;right=0;collapsible=0;dropTarget=0;fillColor=none;points=[[0,0.5],[1,0.5]];portConstraint=eastwest;strokeColor=inherit;fontSize=16;" parent="LBEahy_goc1p-DvRM5PB-77" vertex="1">
          <mxGeometry y="90" width="300" height="30" as="geometry" />
        </mxCell>
        <mxCell id="LBEahy_goc1p-DvRM5PB-114" value="7" style="shape=partialRectangle;html=1;whiteSpace=wrap;connectable=0;fillColor=none;top=0;left=0;bottom=0;right=0;overflow=hidden;strokeColor=inherit;fontSize=16;" parent="LBEahy_goc1p-DvRM5PB-113" vertex="1">
          <mxGeometry width="32" height="30" as="geometry">
            <mxRectangle width="32" height="30" as="alternateBounds" />
          </mxGeometry>
        </mxCell>
        <mxCell id="LBEahy_goc1p-DvRM5PB-115" value="使用者可以修改 todo 的完成狀態" style="shape=partialRectangle;html=1;whiteSpace=wrap;connectable=0;fillColor=none;top=0;left=0;bottom=0;right=0;align=left;spacingLeft=6;overflow=hidden;strokeColor=inherit;fontSize=16;" parent="LBEahy_goc1p-DvRM5PB-113" vertex="1">
          <mxGeometry x="32" width="268" height="30" as="geometry">
            <mxRectangle width="268" height="30" as="alternateBounds" />
          </mxGeometry>
        </mxCell>
        <mxCell id="R9tvNSerCLIq_B-pJVrF-1" value="User Story 新增需求(2023.9.4)" style="shape=table;startSize=30;container=1;collapsible=0;childLayout=tableLayout;fixedRows=1;rowLines=0;fontStyle=0;strokeColor=default;fontSize=16;" vertex="1" parent="1">
          <mxGeometry x="1560" y="-100" width="360" height="240" as="geometry" />
        </mxCell>
        <mxCell id="R9tvNSerCLIq_B-pJVrF-2" style="shape=tableRow;horizontal=0;startSize=0;swimlaneHead=0;swimlaneBody=0;top=0;left=0;bottom=0;right=0;collapsible=0;dropTarget=0;fillColor=none;points=[[0,0.5],[1,0.5]];portConstraint=eastwest;strokeColor=inherit;fontSize=16;" vertex="1" parent="R9tvNSerCLIq_B-pJVrF-1">
          <mxGeometry y="30" width="360" height="30" as="geometry" />
        </mxCell>
        <mxCell id="R9tvNSerCLIq_B-pJVrF-3" value="No." style="shape=partialRectangle;html=1;whiteSpace=wrap;connectable=0;fillColor=none;top=0;left=0;bottom=0;right=0;overflow=hidden;pointerEvents=1;strokeColor=inherit;fontSize=16;" vertex="1" parent="R9tvNSerCLIq_B-pJVrF-2">
          <mxGeometry width="38" height="30" as="geometry">
            <mxRectangle width="38" height="30" as="alternateBounds" />
          </mxGeometry>
        </mxCell>
        <mxCell id="R9tvNSerCLIq_B-pJVrF-4" value="項目" style="shape=partialRectangle;html=1;whiteSpace=wrap;connectable=0;fillColor=none;top=0;left=0;bottom=0;right=0;align=left;spacingLeft=6;overflow=hidden;strokeColor=inherit;fontSize=16;" vertex="1" parent="R9tvNSerCLIq_B-pJVrF-2">
          <mxGeometry x="38" width="322" height="30" as="geometry">
            <mxRectangle width="322" height="30" as="alternateBounds" />
          </mxGeometry>
        </mxCell>
        <mxCell id="R9tvNSerCLIq_B-pJVrF-5" style="shape=tableRow;horizontal=0;startSize=0;swimlaneHead=0;swimlaneBody=0;top=0;left=0;bottom=0;right=0;collapsible=0;dropTarget=0;fillColor=none;points=[[0,0.5],[1,0.5]];portConstraint=eastwest;strokeColor=inherit;fontSize=16;" vertex="1" parent="R9tvNSerCLIq_B-pJVrF-1">
          <mxGeometry y="60" width="360" height="30" as="geometry" />
        </mxCell>
        <mxCell id="R9tvNSerCLIq_B-pJVrF-6" value="1" style="shape=partialRectangle;html=1;whiteSpace=wrap;connectable=0;fillColor=none;top=0;left=0;bottom=0;right=0;overflow=hidden;strokeColor=inherit;fontSize=16;" vertex="1" parent="R9tvNSerCLIq_B-pJVrF-5">
          <mxGeometry width="38" height="30" as="geometry">
            <mxRectangle width="38" height="30" as="alternateBounds" />
          </mxGeometry>
        </mxCell>
        <mxCell id="R9tvNSerCLIq_B-pJVrF-7" value="使用者可以註冊新帳號" style="shape=partialRectangle;html=1;whiteSpace=wrap;connectable=0;fillColor=none;top=0;left=0;bottom=0;right=0;align=left;spacingLeft=6;overflow=hidden;strokeColor=inherit;fontSize=16;" vertex="1" parent="R9tvNSerCLIq_B-pJVrF-5">
          <mxGeometry x="38" width="322" height="30" as="geometry">
            <mxRectangle width="322" height="30" as="alternateBounds" />
          </mxGeometry>
        </mxCell>
        <mxCell id="R9tvNSerCLIq_B-pJVrF-8" style="shape=tableRow;horizontal=0;startSize=0;swimlaneHead=0;swimlaneBody=0;top=0;left=0;bottom=0;right=0;collapsible=0;dropTarget=0;fillColor=none;points=[[0,0.5],[1,0.5]];portConstraint=eastwest;strokeColor=inherit;fontSize=16;" vertex="1" parent="R9tvNSerCLIq_B-pJVrF-1">
          <mxGeometry y="90" width="360" height="30" as="geometry" />
        </mxCell>
        <mxCell id="R9tvNSerCLIq_B-pJVrF-9" value="2" style="shape=partialRectangle;html=1;whiteSpace=wrap;connectable=0;fillColor=none;top=0;left=0;bottom=0;right=0;overflow=hidden;strokeColor=inherit;fontSize=16;" vertex="1" parent="R9tvNSerCLIq_B-pJVrF-8">
          <mxGeometry width="38" height="30" as="geometry">
            <mxRectangle width="38" height="30" as="alternateBounds" />
          </mxGeometry>
        </mxCell>
        <mxCell id="R9tvNSerCLIq_B-pJVrF-10" value="使用者可以登出/登入" style="shape=partialRectangle;html=1;whiteSpace=wrap;connectable=0;fillColor=none;top=0;left=0;bottom=0;right=0;align=left;spacingLeft=6;overflow=hidden;strokeColor=inherit;fontSize=16;" vertex="1" parent="R9tvNSerCLIq_B-pJVrF-8">
          <mxGeometry x="38" width="322" height="30" as="geometry">
            <mxRectangle width="322" height="30" as="alternateBounds" />
          </mxGeometry>
        </mxCell>
        <mxCell id="R9tvNSerCLIq_B-pJVrF-20" style="shape=tableRow;horizontal=0;startSize=0;swimlaneHead=0;swimlaneBody=0;top=0;left=0;bottom=0;right=0;collapsible=0;dropTarget=0;fillColor=none;points=[[0,0.5],[1,0.5]];portConstraint=eastwest;strokeColor=inherit;fontSize=16;" vertex="1" parent="R9tvNSerCLIq_B-pJVrF-1">
          <mxGeometry y="120" width="360" height="30" as="geometry" />
        </mxCell>
        <mxCell id="R9tvNSerCLIq_B-pJVrF-21" value="3" style="shape=partialRectangle;html=1;whiteSpace=wrap;connectable=0;fillColor=none;top=0;left=0;bottom=0;right=0;overflow=hidden;strokeColor=inherit;fontSize=16;" vertex="1" parent="R9tvNSerCLIq_B-pJVrF-20">
          <mxGeometry width="38" height="30" as="geometry">
            <mxRectangle width="38" height="30" as="alternateBounds" />
          </mxGeometry>
        </mxCell>
        <mxCell id="R9tvNSerCLIq_B-pJVrF-22" value="未登入的使用者需要導回登入頁" style="shape=partialRectangle;html=1;whiteSpace=wrap;connectable=0;fillColor=none;top=0;left=0;bottom=0;right=0;align=left;spacingLeft=6;overflow=hidden;strokeColor=inherit;fontSize=16;" vertex="1" parent="R9tvNSerCLIq_B-pJVrF-20">
          <mxGeometry x="38" width="322" height="30" as="geometry">
            <mxRectangle width="322" height="30" as="alternateBounds" />
          </mxGeometry>
        </mxCell>
        <mxCell id="R9tvNSerCLIq_B-pJVrF-17" style="shape=tableRow;horizontal=0;startSize=0;swimlaneHead=0;swimlaneBody=0;top=0;left=0;bottom=0;right=0;collapsible=0;dropTarget=0;fillColor=none;points=[[0,0.5],[1,0.5]];portConstraint=eastwest;strokeColor=inherit;fontSize=16;" vertex="1" parent="R9tvNSerCLIq_B-pJVrF-1">
          <mxGeometry y="150" width="360" height="30" as="geometry" />
        </mxCell>
        <mxCell id="R9tvNSerCLIq_B-pJVrF-18" value="4" style="shape=partialRectangle;html=1;whiteSpace=wrap;connectable=0;fillColor=none;top=0;left=0;bottom=0;right=0;overflow=hidden;strokeColor=inherit;fontSize=16;" vertex="1" parent="R9tvNSerCLIq_B-pJVrF-17">
          <mxGeometry width="38" height="30" as="geometry">
            <mxRectangle width="38" height="30" as="alternateBounds" />
          </mxGeometry>
        </mxCell>
        <mxCell id="R9tvNSerCLIq_B-pJVrF-19" value="使用者僅能操作自己的todos" style="shape=partialRectangle;html=1;whiteSpace=wrap;connectable=0;fillColor=none;top=0;left=0;bottom=0;right=0;align=left;spacingLeft=6;overflow=hidden;strokeColor=inherit;fontSize=16;" vertex="1" parent="R9tvNSerCLIq_B-pJVrF-17">
          <mxGeometry x="38" width="322" height="30" as="geometry">
            <mxRectangle width="322" height="30" as="alternateBounds" />
          </mxGeometry>
        </mxCell>
        <mxCell id="R9tvNSerCLIq_B-pJVrF-14" style="shape=tableRow;horizontal=0;startSize=0;swimlaneHead=0;swimlaneBody=0;top=0;left=0;bottom=0;right=0;collapsible=0;dropTarget=0;fillColor=none;points=[[0,0.5],[1,0.5]];portConstraint=eastwest;strokeColor=inherit;fontSize=16;" vertex="1" parent="R9tvNSerCLIq_B-pJVrF-1">
          <mxGeometry y="180" width="360" height="30" as="geometry" />
        </mxCell>
        <mxCell id="R9tvNSerCLIq_B-pJVrF-15" value="5" style="shape=partialRectangle;html=1;whiteSpace=wrap;connectable=0;fillColor=none;top=0;left=0;bottom=0;right=0;overflow=hidden;strokeColor=inherit;fontSize=16;" vertex="1" parent="R9tvNSerCLIq_B-pJVrF-14">
          <mxGeometry width="38" height="30" as="geometry">
            <mxRectangle width="38" height="30" as="alternateBounds" />
          </mxGeometry>
        </mxCell>
        <mxCell id="R9tvNSerCLIq_B-pJVrF-16" value="在操作成功/失敗，都要顯示提示訊息" style="shape=partialRectangle;html=1;whiteSpace=wrap;connectable=0;fillColor=none;top=0;left=0;bottom=0;right=0;align=left;spacingLeft=6;overflow=hidden;strokeColor=inherit;fontSize=16;" vertex="1" parent="R9tvNSerCLIq_B-pJVrF-14">
          <mxGeometry x="38" width="322" height="30" as="geometry">
            <mxRectangle width="322" height="30" as="alternateBounds" />
          </mxGeometry>
        </mxCell>
        <mxCell id="R9tvNSerCLIq_B-pJVrF-11" style="shape=tableRow;horizontal=0;startSize=0;swimlaneHead=0;swimlaneBody=0;top=0;left=0;bottom=0;right=0;collapsible=0;dropTarget=0;fillColor=none;points=[[0,0.5],[1,0.5]];portConstraint=eastwest;strokeColor=inherit;fontSize=16;" vertex="1" parent="R9tvNSerCLIq_B-pJVrF-1">
          <mxGeometry y="210" width="360" height="30" as="geometry" />
        </mxCell>
        <mxCell id="R9tvNSerCLIq_B-pJVrF-12" value="6" style="shape=partialRectangle;html=1;whiteSpace=wrap;connectable=0;fillColor=none;top=0;left=0;bottom=0;right=0;overflow=hidden;strokeColor=inherit;fontSize=16;" vertex="1" parent="R9tvNSerCLIq_B-pJVrF-11">
          <mxGeometry width="38" height="30" as="geometry">
            <mxRectangle width="38" height="30" as="alternateBounds" />
          </mxGeometry>
        </mxCell>
        <mxCell id="R9tvNSerCLIq_B-pJVrF-13" value="未登入被導回登入頁，要顯示請登入訊息" style="shape=partialRectangle;html=1;whiteSpace=wrap;connectable=0;fillColor=none;top=0;left=0;bottom=0;right=0;align=left;spacingLeft=6;overflow=hidden;strokeColor=inherit;fontSize=16;" vertex="1" parent="R9tvNSerCLIq_B-pJVrF-11">
          <mxGeometry x="38" width="322" height="30" as="geometry">
            <mxRectangle width="322" height="30" as="alternateBounds" />
          </mxGeometry>
        </mxCell>
        <mxCell id="R9tvNSerCLIq_B-pJVrF-23" value="新增 Wireframe (2023.9.4)" style="rounded=0;whiteSpace=wrap;html=1;fontSize=16;" vertex="1" parent="1">
          <mxGeometry x="1560" y="230" width="720" height="40" as="geometry" />
        </mxCell>
        <mxCell id="R9tvNSerCLIq_B-pJVrF-24" value="" style="group;fontSize=15;" vertex="1" connectable="0" parent="1">
          <mxGeometry x="1560" y="290" width="350" height="360" as="geometry" />
        </mxCell>
        <mxCell id="R9tvNSerCLIq_B-pJVrF-25" value="註冊頁" style="rounded=0;whiteSpace=wrap;html=1;" vertex="1" parent="R9tvNSerCLIq_B-pJVrF-24">
          <mxGeometry width="350" height="40" as="geometry" />
        </mxCell>
        <mxCell id="R9tvNSerCLIq_B-pJVrF-26" value="" style="rounded=0;whiteSpace=wrap;html=1;container=0;" vertex="1" parent="R9tvNSerCLIq_B-pJVrF-24">
          <mxGeometry y="40" width="350" height="320" as="geometry" />
        </mxCell>
        <mxCell id="R9tvNSerCLIq_B-pJVrF-29" value="Register" style="text;html=1;strokeColor=none;fillColor=none;align=center;verticalAlign=middle;whiteSpace=wrap;rounded=0;fontSize=16;" vertex="1" parent="R9tvNSerCLIq_B-pJVrF-24">
          <mxGeometry x="28" y="44" width="60" height="30" as="geometry" />
        </mxCell>
        <mxCell id="R9tvNSerCLIq_B-pJVrF-30" value="Name" style="text;html=1;strokeColor=none;fillColor=none;align=center;verticalAlign=middle;whiteSpace=wrap;rounded=0;" vertex="1" parent="R9tvNSerCLIq_B-pJVrF-24">
          <mxGeometry x="15" y="74" width="60" height="30" as="geometry" />
        </mxCell>
        <mxCell id="R9tvNSerCLIq_B-pJVrF-31" value="Enter name" style="rounded=0;whiteSpace=wrap;html=1;align=left;fontColor=#b0b0b0;" vertex="1" parent="R9tvNSerCLIq_B-pJVrF-24">
          <mxGeometry x="30" y="100" width="120" height="20" as="geometry" />
        </mxCell>
        <mxCell id="R9tvNSerCLIq_B-pJVrF-32" value="Email" style="text;html=1;strokeColor=none;fillColor=none;align=center;verticalAlign=middle;whiteSpace=wrap;rounded=0;" vertex="1" parent="R9tvNSerCLIq_B-pJVrF-24">
          <mxGeometry x="15" y="120" width="60" height="30" as="geometry" />
        </mxCell>
        <mxCell id="R9tvNSerCLIq_B-pJVrF-33" value="Enter email" style="rounded=0;whiteSpace=wrap;html=1;align=left;fontColor=#b0b0b0;" vertex="1" parent="R9tvNSerCLIq_B-pJVrF-24">
          <mxGeometry x="30" y="146" width="120" height="20" as="geometry" />
        </mxCell>
        <mxCell id="R9tvNSerCLIq_B-pJVrF-34" value="Password" style="text;html=1;strokeColor=none;fillColor=none;align=center;verticalAlign=middle;whiteSpace=wrap;rounded=0;" vertex="1" parent="R9tvNSerCLIq_B-pJVrF-24">
          <mxGeometry x="27" y="166" width="60" height="30" as="geometry" />
        </mxCell>
        <mxCell id="R9tvNSerCLIq_B-pJVrF-35" value="Enter password" style="rounded=0;whiteSpace=wrap;html=1;align=left;fontColor=#b0b0b0;" vertex="1" parent="R9tvNSerCLIq_B-pJVrF-24">
          <mxGeometry x="30" y="192" width="120" height="20" as="geometry" />
        </mxCell>
        <mxCell id="R9tvNSerCLIq_B-pJVrF-36" value="Confirm password" style="text;html=1;strokeColor=none;fillColor=none;align=center;verticalAlign=middle;whiteSpace=wrap;rounded=0;" vertex="1" parent="R9tvNSerCLIq_B-pJVrF-24">
          <mxGeometry x="15" y="212" width="125" height="30" as="geometry" />
        </mxCell>
        <mxCell id="R9tvNSerCLIq_B-pJVrF-37" value="Confirm password" style="rounded=0;whiteSpace=wrap;html=1;align=left;fontColor=#b0b0b0;" vertex="1" parent="R9tvNSerCLIq_B-pJVrF-24">
          <mxGeometry x="30" y="238" width="120" height="20" as="geometry" />
        </mxCell>
        <mxCell id="R9tvNSerCLIq_B-pJVrF-38" value="Register" style="rounded=1;whiteSpace=wrap;html=1;" vertex="1" parent="R9tvNSerCLIq_B-pJVrF-24">
          <mxGeometry x="30" y="265" width="62" height="15" as="geometry" />
        </mxCell>
        <mxCell id="R9tvNSerCLIq_B-pJVrF-53" value="Already have an account?&amp;nbsp;" style="text;html=1;strokeColor=none;fillColor=none;align=center;verticalAlign=middle;whiteSpace=wrap;rounded=0;" vertex="1" parent="R9tvNSerCLIq_B-pJVrF-24">
          <mxGeometry x="23" y="280" width="162" height="30" as="geometry" />
        </mxCell>
        <mxCell id="R9tvNSerCLIq_B-pJVrF-54" value="Login" style="text;html=1;strokeColor=none;fillColor=none;align=center;verticalAlign=middle;whiteSpace=wrap;rounded=0;labelBackgroundColor=none;fontColor=#009dff;fontStyle=4" vertex="1" parent="R9tvNSerCLIq_B-pJVrF-24">
          <mxGeometry x="165" y="280" width="60" height="30" as="geometry" />
        </mxCell>
        <mxCell id="R9tvNSerCLIq_B-pJVrF-55" value="" style="group;fontSize=15;" vertex="1" connectable="0" parent="1">
          <mxGeometry x="1930" y="290" width="350" height="360" as="geometry" />
        </mxCell>
        <mxCell id="R9tvNSerCLIq_B-pJVrF-56" value="登入頁" style="rounded=0;whiteSpace=wrap;html=1;" vertex="1" parent="R9tvNSerCLIq_B-pJVrF-55">
          <mxGeometry width="350" height="40" as="geometry" />
        </mxCell>
        <mxCell id="R9tvNSerCLIq_B-pJVrF-57" value="" style="rounded=0;whiteSpace=wrap;html=1;container=0;" vertex="1" parent="R9tvNSerCLIq_B-pJVrF-55">
          <mxGeometry y="40" width="350" height="320" as="geometry" />
        </mxCell>
        <mxCell id="R9tvNSerCLIq_B-pJVrF-58" value="Login" style="text;html=1;strokeColor=none;fillColor=none;align=center;verticalAlign=middle;whiteSpace=wrap;rounded=0;fontSize=16;" vertex="1" parent="R9tvNSerCLIq_B-pJVrF-55">
          <mxGeometry x="18" y="44" width="60" height="30" as="geometry" />
        </mxCell>
        <mxCell id="R9tvNSerCLIq_B-pJVrF-68" value="No account?&amp;nbsp;" style="text;html=1;strokeColor=none;fillColor=none;align=center;verticalAlign=middle;whiteSpace=wrap;rounded=0;" vertex="1" parent="R9tvNSerCLIq_B-pJVrF-55">
          <mxGeometry x="24" y="194" width="87" height="30" as="geometry" />
        </mxCell>
        <mxCell id="R9tvNSerCLIq_B-pJVrF-69" value="Register" style="text;html=1;strokeColor=none;fillColor=none;align=center;verticalAlign=middle;whiteSpace=wrap;rounded=0;labelBackgroundColor=none;fontColor=#009dff;fontStyle=4" vertex="1" parent="R9tvNSerCLIq_B-pJVrF-55">
          <mxGeometry x="98" y="193" width="60" height="30" as="geometry" />
        </mxCell>
        <mxCell id="R9tvNSerCLIq_B-pJVrF-61" value="Email" style="text;html=1;strokeColor=none;fillColor=none;align=center;verticalAlign=middle;whiteSpace=wrap;rounded=0;" vertex="1" parent="1">
          <mxGeometry x="1945" y="365" width="60" height="30" as="geometry" />
        </mxCell>
        <mxCell id="R9tvNSerCLIq_B-pJVrF-62" value="Enter email" style="rounded=0;whiteSpace=wrap;html=1;align=left;fontColor=#b0b0b0;" vertex="1" parent="1">
          <mxGeometry x="1960" y="391" width="120" height="20" as="geometry" />
        </mxCell>
        <mxCell id="R9tvNSerCLIq_B-pJVrF-63" value="Password" style="text;html=1;strokeColor=none;fillColor=none;align=center;verticalAlign=middle;whiteSpace=wrap;rounded=0;" vertex="1" parent="1">
          <mxGeometry x="1957" y="411" width="60" height="30" as="geometry" />
        </mxCell>
        <mxCell id="R9tvNSerCLIq_B-pJVrF-64" value="Enter password" style="rounded=0;whiteSpace=wrap;html=1;align=left;fontColor=#b0b0b0;" vertex="1" parent="1">
          <mxGeometry x="1960" y="437" width="120" height="20" as="geometry" />
        </mxCell>
        <mxCell id="R9tvNSerCLIq_B-pJVrF-67" value="Login" style="rounded=1;whiteSpace=wrap;html=1;" vertex="1" parent="1">
          <mxGeometry x="1960" y="467" width="62" height="15" as="geometry" />
        </mxCell>
        <mxCell id="R9tvNSerCLIq_B-pJVrF-70" value="" style="group;fontSize=15;" vertex="1" connectable="0" parent="1">
          <mxGeometry x="1560" y="670" width="360" height="390" as="geometry" />
        </mxCell>
        <mxCell id="R9tvNSerCLIq_B-pJVrF-71" value="一般頁面" style="rounded=0;whiteSpace=wrap;html=1;" vertex="1" parent="R9tvNSerCLIq_B-pJVrF-70">
          <mxGeometry width="350" height="40" as="geometry" />
        </mxCell>
        <mxCell id="R9tvNSerCLIq_B-pJVrF-72" value="" style="rounded=0;whiteSpace=wrap;html=1;container=0;" vertex="1" parent="R9tvNSerCLIq_B-pJVrF-70">
          <mxGeometry y="40" width="350" height="320" as="geometry" />
        </mxCell>
        <mxCell id="R9tvNSerCLIq_B-pJVrF-82" value="Logout" style="rounded=1;whiteSpace=wrap;html=1;" vertex="1" parent="R9tvNSerCLIq_B-pJVrF-70">
          <mxGeometry x="280" y="50" width="62" height="15" as="geometry" />
        </mxCell>
        <mxCell id="R9tvNSerCLIq_B-pJVrF-86" value="Page" style="rounded=0;whiteSpace=wrap;html=1;container=0;" vertex="1" parent="R9tvNSerCLIq_B-pJVrF-70">
          <mxGeometry x="10" y="70" width="330" height="280" as="geometry" />
        </mxCell>
        <mxCell id="R9tvNSerCLIq_B-pJVrF-87" value="新增 User Flow&amp;nbsp;&amp;nbsp;(2023.9.4)" style="rounded=0;whiteSpace=wrap;html=1;fontSize=16;" vertex="1" parent="1">
          <mxGeometry x="1560" y="1081" width="720" height="40" as="geometry" />
        </mxCell>
        <mxCell id="R9tvNSerCLIq_B-pJVrF-88" value="" style="group;fontSize=15;" vertex="1" connectable="0" parent="1">
          <mxGeometry x="1560" y="1150" width="350" height="360" as="geometry" />
        </mxCell>
        <mxCell id="R9tvNSerCLIq_B-pJVrF-89" value="註冊頁" style="rounded=0;whiteSpace=wrap;html=1;" vertex="1" parent="R9tvNSerCLIq_B-pJVrF-88">
          <mxGeometry width="350" height="40" as="geometry" />
        </mxCell>
        <mxCell id="R9tvNSerCLIq_B-pJVrF-90" value="" style="rounded=0;whiteSpace=wrap;html=1;container=0;" vertex="1" parent="R9tvNSerCLIq_B-pJVrF-88">
          <mxGeometry y="40" width="350" height="320" as="geometry" />
        </mxCell>
        <mxCell id="R9tvNSerCLIq_B-pJVrF-91" value="Register" style="text;html=1;strokeColor=none;fillColor=none;align=center;verticalAlign=middle;whiteSpace=wrap;rounded=0;fontSize=16;" vertex="1" parent="R9tvNSerCLIq_B-pJVrF-88">
          <mxGeometry x="28" y="44" width="60" height="30" as="geometry" />
        </mxCell>
        <mxCell id="R9tvNSerCLIq_B-pJVrF-92" value="Name" style="text;html=1;strokeColor=none;fillColor=none;align=center;verticalAlign=middle;whiteSpace=wrap;rounded=0;" vertex="1" parent="R9tvNSerCLIq_B-pJVrF-88">
          <mxGeometry x="15" y="74" width="60" height="30" as="geometry" />
        </mxCell>
        <mxCell id="R9tvNSerCLIq_B-pJVrF-93" value="Enter name" style="rounded=0;whiteSpace=wrap;html=1;align=left;fontColor=#b0b0b0;" vertex="1" parent="R9tvNSerCLIq_B-pJVrF-88">
          <mxGeometry x="30" y="100" width="120" height="20" as="geometry" />
        </mxCell>
        <mxCell id="R9tvNSerCLIq_B-pJVrF-94" value="Email" style="text;html=1;strokeColor=none;fillColor=none;align=center;verticalAlign=middle;whiteSpace=wrap;rounded=0;" vertex="1" parent="R9tvNSerCLIq_B-pJVrF-88">
          <mxGeometry x="15" y="120" width="60" height="30" as="geometry" />
        </mxCell>
        <mxCell id="R9tvNSerCLIq_B-pJVrF-95" value="Enter email" style="rounded=0;whiteSpace=wrap;html=1;align=left;fontColor=#b0b0b0;" vertex="1" parent="R9tvNSerCLIq_B-pJVrF-88">
          <mxGeometry x="30" y="146" width="120" height="20" as="geometry" />
        </mxCell>
        <mxCell id="R9tvNSerCLIq_B-pJVrF-96" value="Password" style="text;html=1;strokeColor=none;fillColor=none;align=center;verticalAlign=middle;whiteSpace=wrap;rounded=0;" vertex="1" parent="R9tvNSerCLIq_B-pJVrF-88">
          <mxGeometry x="27" y="166" width="60" height="30" as="geometry" />
        </mxCell>
        <mxCell id="R9tvNSerCLIq_B-pJVrF-97" value="Enter password" style="rounded=0;whiteSpace=wrap;html=1;align=left;fontColor=#b0b0b0;" vertex="1" parent="R9tvNSerCLIq_B-pJVrF-88">
          <mxGeometry x="30" y="192" width="120" height="20" as="geometry" />
        </mxCell>
        <mxCell id="R9tvNSerCLIq_B-pJVrF-98" value="Confirm password" style="text;html=1;strokeColor=none;fillColor=none;align=center;verticalAlign=middle;whiteSpace=wrap;rounded=0;" vertex="1" parent="R9tvNSerCLIq_B-pJVrF-88">
          <mxGeometry x="15" y="212" width="125" height="30" as="geometry" />
        </mxCell>
        <mxCell id="R9tvNSerCLIq_B-pJVrF-99" value="Confirm password" style="rounded=0;whiteSpace=wrap;html=1;align=left;fontColor=#b0b0b0;" vertex="1" parent="R9tvNSerCLIq_B-pJVrF-88">
          <mxGeometry x="30" y="238" width="120" height="20" as="geometry" />
        </mxCell>
        <mxCell id="R9tvNSerCLIq_B-pJVrF-100" value="Register" style="rounded=1;whiteSpace=wrap;html=1;" vertex="1" parent="R9tvNSerCLIq_B-pJVrF-88">
          <mxGeometry x="30" y="265" width="62" height="15" as="geometry" />
        </mxCell>
        <mxCell id="R9tvNSerCLIq_B-pJVrF-101" value="Already have an account?&amp;nbsp;" style="text;html=1;strokeColor=none;fillColor=none;align=center;verticalAlign=middle;whiteSpace=wrap;rounded=0;" vertex="1" parent="R9tvNSerCLIq_B-pJVrF-88">
          <mxGeometry x="23" y="280" width="162" height="30" as="geometry" />
        </mxCell>
        <mxCell id="R9tvNSerCLIq_B-pJVrF-102" value="Login" style="text;html=1;strokeColor=none;fillColor=none;align=center;verticalAlign=middle;whiteSpace=wrap;rounded=0;labelBackgroundColor=none;fontColor=#009dff;fontStyle=4" vertex="1" parent="R9tvNSerCLIq_B-pJVrF-88">
          <mxGeometry x="165" y="280" width="60" height="30" as="geometry" />
        </mxCell>
        <mxCell id="R9tvNSerCLIq_B-pJVrF-103" value="" style="group;fontSize=15;" vertex="1" connectable="0" parent="1">
          <mxGeometry x="1930" y="1150" width="350" height="360" as="geometry" />
        </mxCell>
        <mxCell id="R9tvNSerCLIq_B-pJVrF-104" value="登入頁" style="rounded=0;whiteSpace=wrap;html=1;" vertex="1" parent="R9tvNSerCLIq_B-pJVrF-103">
          <mxGeometry width="350" height="40" as="geometry" />
        </mxCell>
        <mxCell id="R9tvNSerCLIq_B-pJVrF-105" value="" style="rounded=0;whiteSpace=wrap;html=1;container=0;" vertex="1" parent="R9tvNSerCLIq_B-pJVrF-103">
          <mxGeometry y="40" width="350" height="320" as="geometry" />
        </mxCell>
        <mxCell id="R9tvNSerCLIq_B-pJVrF-106" value="Login" style="text;html=1;strokeColor=none;fillColor=none;align=center;verticalAlign=middle;whiteSpace=wrap;rounded=0;fontSize=16;" vertex="1" parent="R9tvNSerCLIq_B-pJVrF-103">
          <mxGeometry x="18" y="44" width="60" height="30" as="geometry" />
        </mxCell>
        <mxCell id="R9tvNSerCLIq_B-pJVrF-107" value="No account?&amp;nbsp;" style="text;html=1;strokeColor=none;fillColor=none;align=center;verticalAlign=middle;whiteSpace=wrap;rounded=0;" vertex="1" parent="R9tvNSerCLIq_B-pJVrF-103">
          <mxGeometry x="24" y="194" width="87" height="30" as="geometry" />
        </mxCell>
        <mxCell id="R9tvNSerCLIq_B-pJVrF-108" value="Register" style="text;html=1;strokeColor=none;fillColor=none;align=center;verticalAlign=middle;whiteSpace=wrap;rounded=0;labelBackgroundColor=none;fontColor=#009dff;fontStyle=4" vertex="1" parent="R9tvNSerCLIq_B-pJVrF-103">
          <mxGeometry x="98" y="193" width="60" height="30" as="geometry" />
        </mxCell>
        <mxCell id="R9tvNSerCLIq_B-pJVrF-109" value="Email" style="text;html=1;strokeColor=none;fillColor=none;align=center;verticalAlign=middle;whiteSpace=wrap;rounded=0;" vertex="1" parent="1">
          <mxGeometry x="1945" y="1225" width="60" height="30" as="geometry" />
        </mxCell>
        <mxCell id="R9tvNSerCLIq_B-pJVrF-110" value="Enter email" style="rounded=0;whiteSpace=wrap;html=1;align=left;fontColor=#b0b0b0;" vertex="1" parent="1">
          <mxGeometry x="1960" y="1251" width="120" height="20" as="geometry" />
        </mxCell>
        <mxCell id="R9tvNSerCLIq_B-pJVrF-111" value="Password" style="text;html=1;strokeColor=none;fillColor=none;align=center;verticalAlign=middle;whiteSpace=wrap;rounded=0;" vertex="1" parent="1">
          <mxGeometry x="1957" y="1271" width="60" height="30" as="geometry" />
        </mxCell>
        <mxCell id="R9tvNSerCLIq_B-pJVrF-112" value="Enter password" style="rounded=0;whiteSpace=wrap;html=1;align=left;fontColor=#b0b0b0;" vertex="1" parent="1">
          <mxGeometry x="1960" y="1297" width="120" height="20" as="geometry" />
        </mxCell>
        <mxCell id="R9tvNSerCLIq_B-pJVrF-121" style="edgeStyle=orthogonalEdgeStyle;rounded=0;orthogonalLoop=1;jettySize=auto;html=1;exitX=0;exitY=0.25;exitDx=0;exitDy=0;entryX=1;entryY=0.5;entryDx=0;entryDy=0;fillColor=#d5e8d4;strokeColor=#82b366;" edge="1" parent="1" source="R9tvNSerCLIq_B-pJVrF-113" target="R9tvNSerCLIq_B-pJVrF-115">
          <mxGeometry relative="1" as="geometry">
            <Array as="points">
              <mxPoint x="1950" y="1331" />
              <mxPoint x="1950" y="1730" />
            </Array>
          </mxGeometry>
        </mxCell>
        <mxCell id="R9tvNSerCLIq_B-pJVrF-113" value="Login" style="rounded=1;whiteSpace=wrap;html=1;" vertex="1" parent="1">
          <mxGeometry x="1960" y="1327" width="62" height="15" as="geometry" />
        </mxCell>
        <mxCell id="R9tvNSerCLIq_B-pJVrF-114" value="一般頁面" style="rounded=0;whiteSpace=wrap;html=1;" vertex="1" parent="1">
          <mxGeometry x="1560" y="1530" width="350" height="40" as="geometry" />
        </mxCell>
        <mxCell id="R9tvNSerCLIq_B-pJVrF-115" value="" style="rounded=0;whiteSpace=wrap;html=1;container=0;" vertex="1" parent="1">
          <mxGeometry x="1560" y="1570" width="350" height="320" as="geometry" />
        </mxCell>
        <mxCell id="R9tvNSerCLIq_B-pJVrF-122" style="edgeStyle=orthogonalEdgeStyle;rounded=0;orthogonalLoop=1;jettySize=auto;html=1;entryX=0.5;entryY=1;entryDx=0;entryDy=0;fillColor=#d5e8d4;strokeColor=#82b366;" edge="1" parent="1" source="R9tvNSerCLIq_B-pJVrF-116" target="R9tvNSerCLIq_B-pJVrF-105">
          <mxGeometry relative="1" as="geometry" />
        </mxCell>
        <mxCell id="R9tvNSerCLIq_B-pJVrF-116" value="Logout" style="rounded=1;whiteSpace=wrap;html=1;" vertex="1" parent="1">
          <mxGeometry x="1840" y="1580" width="62" height="15" as="geometry" />
        </mxCell>
        <mxCell id="R9tvNSerCLIq_B-pJVrF-117" value="Page" style="rounded=0;whiteSpace=wrap;html=1;container=0;dashed=1;" vertex="1" parent="1">
          <mxGeometry x="1570" y="1600" width="330" height="280" as="geometry" />
        </mxCell>
        <mxCell id="R9tvNSerCLIq_B-pJVrF-118" style="edgeStyle=orthogonalEdgeStyle;rounded=0;orthogonalLoop=1;jettySize=auto;html=1;entryX=-0.011;entryY=0.331;entryDx=0;entryDy=0;entryPerimeter=0;fillColor=#d5e8d4;strokeColor=#82b366;" edge="1" parent="1" source="R9tvNSerCLIq_B-pJVrF-100" target="R9tvNSerCLIq_B-pJVrF-105">
          <mxGeometry relative="1" as="geometry" />
        </mxCell>
        <mxCell id="R9tvNSerCLIq_B-pJVrF-119" style="edgeStyle=orthogonalEdgeStyle;rounded=0;orthogonalLoop=1;jettySize=auto;html=1;exitX=1;exitY=0.5;exitDx=0;exitDy=0;entryX=-0.006;entryY=0.797;entryDx=0;entryDy=0;entryPerimeter=0;fillColor=#d5e8d4;strokeColor=#82b366;" edge="1" parent="1" source="R9tvNSerCLIq_B-pJVrF-102" target="R9tvNSerCLIq_B-pJVrF-105">
          <mxGeometry relative="1" as="geometry" />
        </mxCell>
        <mxCell id="R9tvNSerCLIq_B-pJVrF-120" style="edgeStyle=orthogonalEdgeStyle;rounded=0;orthogonalLoop=1;jettySize=auto;html=1;exitX=1;exitY=0.5;exitDx=0;exitDy=0;entryX=0.5;entryY=0;entryDx=0;entryDy=0;fillColor=#d5e8d4;strokeColor=#82b366;" edge="1" parent="1" source="R9tvNSerCLIq_B-pJVrF-108" target="R9tvNSerCLIq_B-pJVrF-89">
          <mxGeometry relative="1" as="geometry">
            <Array as="points">
              <mxPoint x="2140" y="1358" />
              <mxPoint x="2140" y="1130" />
              <mxPoint x="1735" y="1130" />
            </Array>
          </mxGeometry>
        </mxCell>
        <mxCell id="R9tvNSerCLIq_B-pJVrF-123" value="" style="shape=table;startSize=0;container=1;collapsible=0;childLayout=tableLayout;fontSize=16;" vertex="1" parent="1">
          <mxGeometry x="1560" y="1990" width="500" height="240" as="geometry" />
        </mxCell>
        <mxCell id="R9tvNSerCLIq_B-pJVrF-124" value="" style="shape=tableRow;horizontal=0;startSize=0;swimlaneHead=0;swimlaneBody=0;strokeColor=inherit;top=0;left=0;bottom=0;right=0;collapsible=0;dropTarget=0;fillColor=none;points=[[0,0.5],[1,0.5]];portConstraint=eastwest;fontSize=16;" vertex="1" parent="R9tvNSerCLIq_B-pJVrF-123">
          <mxGeometry width="500" height="40" as="geometry" />
        </mxCell>
        <mxCell id="R9tvNSerCLIq_B-pJVrF-125" value="操作動作" style="shape=partialRectangle;html=1;whiteSpace=wrap;connectable=0;strokeColor=inherit;overflow=hidden;fillColor=none;top=0;left=0;bottom=0;right=0;pointerEvents=1;fontSize=16;" vertex="1" parent="R9tvNSerCLIq_B-pJVrF-124">
          <mxGeometry width="167" height="40" as="geometry">
            <mxRectangle width="167" height="40" as="alternateBounds" />
          </mxGeometry>
        </mxCell>
        <mxCell id="R9tvNSerCLIq_B-pJVrF-126" value="Verb" style="shape=partialRectangle;html=1;whiteSpace=wrap;connectable=0;strokeColor=inherit;overflow=hidden;fillColor=none;top=0;left=0;bottom=0;right=0;pointerEvents=1;fontSize=16;" vertex="1" parent="R9tvNSerCLIq_B-pJVrF-124">
          <mxGeometry x="167" width="166" height="40" as="geometry">
            <mxRectangle width="166" height="40" as="alternateBounds" />
          </mxGeometry>
        </mxCell>
        <mxCell id="R9tvNSerCLIq_B-pJVrF-127" value="URL" style="shape=partialRectangle;html=1;whiteSpace=wrap;connectable=0;strokeColor=inherit;overflow=hidden;fillColor=none;top=0;left=0;bottom=0;right=0;pointerEvents=1;fontSize=16;" vertex="1" parent="R9tvNSerCLIq_B-pJVrF-124">
          <mxGeometry x="333" width="167" height="40" as="geometry">
            <mxRectangle width="167" height="40" as="alternateBounds" />
          </mxGeometry>
        </mxCell>
        <mxCell id="R9tvNSerCLIq_B-pJVrF-128" value="" style="shape=tableRow;horizontal=0;startSize=0;swimlaneHead=0;swimlaneBody=0;strokeColor=inherit;top=0;left=0;bottom=0;right=0;collapsible=0;dropTarget=0;fillColor=none;points=[[0,0.5],[1,0.5]];portConstraint=eastwest;fontSize=16;" vertex="1" parent="R9tvNSerCLIq_B-pJVrF-123">
          <mxGeometry y="40" width="500" height="40" as="geometry" />
        </mxCell>
        <mxCell id="R9tvNSerCLIq_B-pJVrF-129" value="取得註冊頁" style="shape=partialRectangle;html=1;whiteSpace=wrap;connectable=0;strokeColor=inherit;overflow=hidden;fillColor=none;top=0;left=0;bottom=0;right=0;pointerEvents=1;fontSize=16;" vertex="1" parent="R9tvNSerCLIq_B-pJVrF-128">
          <mxGeometry width="167" height="40" as="geometry">
            <mxRectangle width="167" height="40" as="alternateBounds" />
          </mxGeometry>
        </mxCell>
        <mxCell id="R9tvNSerCLIq_B-pJVrF-130" value="GET" style="shape=partialRectangle;html=1;whiteSpace=wrap;connectable=0;strokeColor=inherit;overflow=hidden;fillColor=none;top=0;left=0;bottom=0;right=0;pointerEvents=1;fontSize=16;" vertex="1" parent="R9tvNSerCLIq_B-pJVrF-128">
          <mxGeometry x="167" width="166" height="40" as="geometry">
            <mxRectangle width="166" height="40" as="alternateBounds" />
          </mxGeometry>
        </mxCell>
        <mxCell id="R9tvNSerCLIq_B-pJVrF-131" value="/register" style="shape=partialRectangle;html=1;whiteSpace=wrap;connectable=0;strokeColor=inherit;overflow=hidden;fillColor=none;top=0;left=0;bottom=0;right=0;pointerEvents=1;fontSize=16;" vertex="1" parent="R9tvNSerCLIq_B-pJVrF-128">
          <mxGeometry x="333" width="167" height="40" as="geometry">
            <mxRectangle width="167" height="40" as="alternateBounds" />
          </mxGeometry>
        </mxCell>
        <mxCell id="R9tvNSerCLIq_B-pJVrF-132" value="" style="shape=tableRow;horizontal=0;startSize=0;swimlaneHead=0;swimlaneBody=0;strokeColor=inherit;top=0;left=0;bottom=0;right=0;collapsible=0;dropTarget=0;fillColor=none;points=[[0,0.5],[1,0.5]];portConstraint=eastwest;fontSize=16;" vertex="1" parent="R9tvNSerCLIq_B-pJVrF-123">
          <mxGeometry y="80" width="500" height="40" as="geometry" />
        </mxCell>
        <mxCell id="R9tvNSerCLIq_B-pJVrF-133" value="取得登入頁" style="shape=partialRectangle;html=1;whiteSpace=wrap;connectable=0;strokeColor=inherit;overflow=hidden;fillColor=none;top=0;left=0;bottom=0;right=0;pointerEvents=1;fontSize=16;" vertex="1" parent="R9tvNSerCLIq_B-pJVrF-132">
          <mxGeometry width="167" height="40" as="geometry">
            <mxRectangle width="167" height="40" as="alternateBounds" />
          </mxGeometry>
        </mxCell>
        <mxCell id="R9tvNSerCLIq_B-pJVrF-134" value="GET" style="shape=partialRectangle;html=1;whiteSpace=wrap;connectable=0;strokeColor=inherit;overflow=hidden;fillColor=none;top=0;left=0;bottom=0;right=0;pointerEvents=1;fontSize=16;" vertex="1" parent="R9tvNSerCLIq_B-pJVrF-132">
          <mxGeometry x="167" width="166" height="40" as="geometry">
            <mxRectangle width="166" height="40" as="alternateBounds" />
          </mxGeometry>
        </mxCell>
        <mxCell id="R9tvNSerCLIq_B-pJVrF-135" value="/login" style="shape=partialRectangle;html=1;whiteSpace=wrap;connectable=0;strokeColor=inherit;overflow=hidden;fillColor=none;top=0;left=0;bottom=0;right=0;pointerEvents=1;fontSize=16;" vertex="1" parent="R9tvNSerCLIq_B-pJVrF-132">
          <mxGeometry x="333" width="167" height="40" as="geometry">
            <mxRectangle width="167" height="40" as="alternateBounds" />
          </mxGeometry>
        </mxCell>
        <mxCell id="R9tvNSerCLIq_B-pJVrF-136" style="shape=tableRow;horizontal=0;startSize=0;swimlaneHead=0;swimlaneBody=0;strokeColor=inherit;top=0;left=0;bottom=0;right=0;collapsible=0;dropTarget=0;fillColor=none;points=[[0,0.5],[1,0.5]];portConstraint=eastwest;fontSize=16;" vertex="1" parent="R9tvNSerCLIq_B-pJVrF-123">
          <mxGeometry y="120" width="500" height="40" as="geometry" />
        </mxCell>
        <mxCell id="R9tvNSerCLIq_B-pJVrF-137" value="新增帳號" style="shape=partialRectangle;html=1;whiteSpace=wrap;connectable=0;strokeColor=inherit;overflow=hidden;fillColor=none;top=0;left=0;bottom=0;right=0;pointerEvents=1;fontSize=16;" vertex="1" parent="R9tvNSerCLIq_B-pJVrF-136">
          <mxGeometry width="167" height="40" as="geometry">
            <mxRectangle width="167" height="40" as="alternateBounds" />
          </mxGeometry>
        </mxCell>
        <mxCell id="R9tvNSerCLIq_B-pJVrF-138" value="POST" style="shape=partialRectangle;html=1;whiteSpace=wrap;connectable=0;strokeColor=inherit;overflow=hidden;fillColor=none;top=0;left=0;bottom=0;right=0;pointerEvents=1;fontSize=16;" vertex="1" parent="R9tvNSerCLIq_B-pJVrF-136">
          <mxGeometry x="167" width="166" height="40" as="geometry">
            <mxRectangle width="166" height="40" as="alternateBounds" />
          </mxGeometry>
        </mxCell>
        <mxCell id="R9tvNSerCLIq_B-pJVrF-139" value="/users" style="shape=partialRectangle;html=1;whiteSpace=wrap;connectable=0;strokeColor=inherit;overflow=hidden;fillColor=none;top=0;left=0;bottom=0;right=0;pointerEvents=1;fontSize=16;" vertex="1" parent="R9tvNSerCLIq_B-pJVrF-136">
          <mxGeometry x="333" width="167" height="40" as="geometry">
            <mxRectangle width="167" height="40" as="alternateBounds" />
          </mxGeometry>
        </mxCell>
        <mxCell id="R9tvNSerCLIq_B-pJVrF-140" style="shape=tableRow;horizontal=0;startSize=0;swimlaneHead=0;swimlaneBody=0;strokeColor=inherit;top=0;left=0;bottom=0;right=0;collapsible=0;dropTarget=0;fillColor=none;points=[[0,0.5],[1,0.5]];portConstraint=eastwest;fontSize=16;" vertex="1" parent="R9tvNSerCLIq_B-pJVrF-123">
          <mxGeometry y="160" width="500" height="40" as="geometry" />
        </mxCell>
        <mxCell id="R9tvNSerCLIq_B-pJVrF-141" value="登入" style="shape=partialRectangle;html=1;whiteSpace=wrap;connectable=0;strokeColor=inherit;overflow=hidden;fillColor=none;top=0;left=0;bottom=0;right=0;pointerEvents=1;fontSize=16;" vertex="1" parent="R9tvNSerCLIq_B-pJVrF-140">
          <mxGeometry width="167" height="40" as="geometry">
            <mxRectangle width="167" height="40" as="alternateBounds" />
          </mxGeometry>
        </mxCell>
        <mxCell id="R9tvNSerCLIq_B-pJVrF-142" value="POST" style="shape=partialRectangle;html=1;whiteSpace=wrap;connectable=0;strokeColor=inherit;overflow=hidden;fillColor=none;top=0;left=0;bottom=0;right=0;pointerEvents=1;fontSize=16;" vertex="1" parent="R9tvNSerCLIq_B-pJVrF-140">
          <mxGeometry x="167" width="166" height="40" as="geometry">
            <mxRectangle width="166" height="40" as="alternateBounds" />
          </mxGeometry>
        </mxCell>
        <mxCell id="R9tvNSerCLIq_B-pJVrF-143" value="/login" style="shape=partialRectangle;html=1;whiteSpace=wrap;connectable=0;strokeColor=inherit;overflow=hidden;fillColor=none;top=0;left=0;bottom=0;right=0;pointerEvents=1;fontSize=16;" vertex="1" parent="R9tvNSerCLIq_B-pJVrF-140">
          <mxGeometry x="333" width="167" height="40" as="geometry">
            <mxRectangle width="167" height="40" as="alternateBounds" />
          </mxGeometry>
        </mxCell>
        <mxCell id="R9tvNSerCLIq_B-pJVrF-144" style="shape=tableRow;horizontal=0;startSize=0;swimlaneHead=0;swimlaneBody=0;strokeColor=inherit;top=0;left=0;bottom=0;right=0;collapsible=0;dropTarget=0;fillColor=none;points=[[0,0.5],[1,0.5]];portConstraint=eastwest;fontSize=16;" vertex="1" parent="R9tvNSerCLIq_B-pJVrF-123">
          <mxGeometry y="200" width="500" height="40" as="geometry" />
        </mxCell>
        <mxCell id="R9tvNSerCLIq_B-pJVrF-145" value="登出" style="shape=partialRectangle;html=1;whiteSpace=wrap;connectable=0;strokeColor=inherit;overflow=hidden;fillColor=none;top=0;left=0;bottom=0;right=0;pointerEvents=1;fontSize=16;" vertex="1" parent="R9tvNSerCLIq_B-pJVrF-144">
          <mxGeometry width="167" height="40" as="geometry">
            <mxRectangle width="167" height="40" as="alternateBounds" />
          </mxGeometry>
        </mxCell>
        <mxCell id="R9tvNSerCLIq_B-pJVrF-146" value="POST" style="shape=partialRectangle;html=1;whiteSpace=wrap;connectable=0;strokeColor=inherit;overflow=hidden;fillColor=none;top=0;left=0;bottom=0;right=0;pointerEvents=1;fontSize=16;" vertex="1" parent="R9tvNSerCLIq_B-pJVrF-144">
          <mxGeometry x="167" width="166" height="40" as="geometry">
            <mxRectangle width="166" height="40" as="alternateBounds" />
          </mxGeometry>
        </mxCell>
        <mxCell id="R9tvNSerCLIq_B-pJVrF-147" value="/logout" style="shape=partialRectangle;html=1;whiteSpace=wrap;connectable=0;strokeColor=inherit;overflow=hidden;fillColor=none;top=0;left=0;bottom=0;right=0;pointerEvents=1;fontSize=16;" vertex="1" parent="R9tvNSerCLIq_B-pJVrF-144">
          <mxGeometry x="333" width="167" height="40" as="geometry">
            <mxRectangle width="167" height="40" as="alternateBounds" />
          </mxGeometry>
        </mxCell>
        <mxCell id="R9tvNSerCLIq_B-pJVrF-156" value="新增 todo list 路由&amp;nbsp;(2023.9.4)" style="rounded=0;whiteSpace=wrap;html=1;fontSize=16;" vertex="1" parent="1">
          <mxGeometry x="1560" y="1940" width="500" height="40" as="geometry" />
        </mxCell>
        <mxCell id="R9tvNSerCLIq_B-pJVrF-157" value="" style="shape=table;startSize=0;container=1;collapsible=0;childLayout=tableLayout;fontSize=16;" vertex="1" parent="1">
          <mxGeometry x="1560" y="2320" width="333" height="280" as="geometry" />
        </mxCell>
        <mxCell id="R9tvNSerCLIq_B-pJVrF-158" value="" style="shape=tableRow;horizontal=0;startSize=0;swimlaneHead=0;swimlaneBody=0;strokeColor=inherit;top=0;left=0;bottom=0;right=0;collapsible=0;dropTarget=0;fillColor=none;points=[[0,0.5],[1,0.5]];portConstraint=eastwest;fontSize=16;" vertex="1" parent="R9tvNSerCLIq_B-pJVrF-157">
          <mxGeometry width="333" height="40" as="geometry" />
        </mxCell>
        <mxCell id="R9tvNSerCLIq_B-pJVrF-159" value="" style="shape=partialRectangle;html=1;whiteSpace=wrap;connectable=0;strokeColor=inherit;overflow=hidden;fillColor=none;top=0;left=0;bottom=0;right=0;pointerEvents=1;fontSize=16;" vertex="1" parent="R9tvNSerCLIq_B-pJVrF-158">
          <mxGeometry width="90" height="40" as="geometry">
            <mxRectangle width="90" height="40" as="alternateBounds" />
          </mxGeometry>
        </mxCell>
        <mxCell id="R9tvNSerCLIq_B-pJVrF-160" value="Users" style="shape=partialRectangle;html=1;whiteSpace=wrap;connectable=0;strokeColor=inherit;overflow=hidden;fillColor=none;top=0;left=0;bottom=0;right=0;pointerEvents=1;fontSize=16;" vertex="1" parent="R9tvNSerCLIq_B-pJVrF-158">
          <mxGeometry x="90" width="243" height="40" as="geometry">
            <mxRectangle width="243" height="40" as="alternateBounds" />
          </mxGeometry>
        </mxCell>
        <mxCell id="R9tvNSerCLIq_B-pJVrF-162" value="" style="shape=tableRow;horizontal=0;startSize=0;swimlaneHead=0;swimlaneBody=0;strokeColor=inherit;top=0;left=0;bottom=0;right=0;collapsible=0;dropTarget=0;fillColor=none;points=[[0,0.5],[1,0.5]];portConstraint=eastwest;fontSize=16;" vertex="1" parent="R9tvNSerCLIq_B-pJVrF-157">
          <mxGeometry y="40" width="333" height="40" as="geometry" />
        </mxCell>
        <mxCell id="R9tvNSerCLIq_B-pJVrF-163" value="PK" style="shape=partialRectangle;html=1;whiteSpace=wrap;connectable=0;strokeColor=inherit;overflow=hidden;fillColor=none;top=0;left=0;bottom=0;right=0;pointerEvents=1;fontSize=16;" vertex="1" parent="R9tvNSerCLIq_B-pJVrF-162">
          <mxGeometry width="90" height="40" as="geometry">
            <mxRectangle width="90" height="40" as="alternateBounds" />
          </mxGeometry>
        </mxCell>
        <mxCell id="R9tvNSerCLIq_B-pJVrF-164" value="id" style="shape=partialRectangle;html=1;whiteSpace=wrap;connectable=0;strokeColor=inherit;overflow=hidden;fillColor=none;top=0;left=0;bottom=0;right=0;pointerEvents=1;fontSize=16;align=left;" vertex="1" parent="R9tvNSerCLIq_B-pJVrF-162">
          <mxGeometry x="90" width="243" height="40" as="geometry">
            <mxRectangle width="243" height="40" as="alternateBounds" />
          </mxGeometry>
        </mxCell>
        <mxCell id="R9tvNSerCLIq_B-pJVrF-166" value="" style="shape=tableRow;horizontal=0;startSize=0;swimlaneHead=0;swimlaneBody=0;strokeColor=inherit;top=0;left=0;bottom=0;right=0;collapsible=0;dropTarget=0;fillColor=none;points=[[0,0.5],[1,0.5]];portConstraint=eastwest;fontSize=16;" vertex="1" parent="R9tvNSerCLIq_B-pJVrF-157">
          <mxGeometry y="80" width="333" height="40" as="geometry" />
        </mxCell>
        <mxCell id="R9tvNSerCLIq_B-pJVrF-167" value="" style="shape=partialRectangle;html=1;whiteSpace=wrap;connectable=0;strokeColor=inherit;overflow=hidden;fillColor=none;top=0;left=0;bottom=0;right=0;pointerEvents=1;fontSize=16;" vertex="1" parent="R9tvNSerCLIq_B-pJVrF-166">
          <mxGeometry width="90" height="40" as="geometry">
            <mxRectangle width="90" height="40" as="alternateBounds" />
          </mxGeometry>
        </mxCell>
        <mxCell id="R9tvNSerCLIq_B-pJVrF-168" value="email NOT NULL unique" style="shape=partialRectangle;html=1;whiteSpace=wrap;connectable=0;strokeColor=inherit;overflow=hidden;fillColor=none;top=0;left=0;bottom=0;right=0;pointerEvents=1;fontSize=16;align=left;" vertex="1" parent="R9tvNSerCLIq_B-pJVrF-166">
          <mxGeometry x="90" width="243" height="40" as="geometry">
            <mxRectangle width="243" height="40" as="alternateBounds" />
          </mxGeometry>
        </mxCell>
        <mxCell id="R9tvNSerCLIq_B-pJVrF-170" style="shape=tableRow;horizontal=0;startSize=0;swimlaneHead=0;swimlaneBody=0;strokeColor=inherit;top=0;left=0;bottom=0;right=0;collapsible=0;dropTarget=0;fillColor=none;points=[[0,0.5],[1,0.5]];portConstraint=eastwest;fontSize=16;" vertex="1" parent="R9tvNSerCLIq_B-pJVrF-157">
          <mxGeometry y="120" width="333" height="40" as="geometry" />
        </mxCell>
        <mxCell id="R9tvNSerCLIq_B-pJVrF-171" value="" style="shape=partialRectangle;html=1;whiteSpace=wrap;connectable=0;strokeColor=inherit;overflow=hidden;fillColor=none;top=0;left=0;bottom=0;right=0;pointerEvents=1;fontSize=16;" vertex="1" parent="R9tvNSerCLIq_B-pJVrF-170">
          <mxGeometry width="90" height="40" as="geometry">
            <mxRectangle width="90" height="40" as="alternateBounds" />
          </mxGeometry>
        </mxCell>
        <mxCell id="R9tvNSerCLIq_B-pJVrF-172" value="password NOT NULL" style="shape=partialRectangle;html=1;whiteSpace=wrap;connectable=0;strokeColor=inherit;overflow=hidden;fillColor=none;top=0;left=0;bottom=0;right=0;pointerEvents=1;fontSize=16;align=left;" vertex="1" parent="R9tvNSerCLIq_B-pJVrF-170">
          <mxGeometry x="90" width="243" height="40" as="geometry">
            <mxRectangle width="243" height="40" as="alternateBounds" />
          </mxGeometry>
        </mxCell>
        <mxCell id="R9tvNSerCLIq_B-pJVrF-174" style="shape=tableRow;horizontal=0;startSize=0;swimlaneHead=0;swimlaneBody=0;strokeColor=inherit;top=0;left=0;bottom=0;right=0;collapsible=0;dropTarget=0;fillColor=none;points=[[0,0.5],[1,0.5]];portConstraint=eastwest;fontSize=16;" vertex="1" parent="R9tvNSerCLIq_B-pJVrF-157">
          <mxGeometry y="160" width="333" height="40" as="geometry" />
        </mxCell>
        <mxCell id="R9tvNSerCLIq_B-pJVrF-175" value="" style="shape=partialRectangle;html=1;whiteSpace=wrap;connectable=0;strokeColor=inherit;overflow=hidden;fillColor=none;top=0;left=0;bottom=0;right=0;pointerEvents=1;fontSize=16;" vertex="1" parent="R9tvNSerCLIq_B-pJVrF-174">
          <mxGeometry width="90" height="40" as="geometry">
            <mxRectangle width="90" height="40" as="alternateBounds" />
          </mxGeometry>
        </mxCell>
        <mxCell id="R9tvNSerCLIq_B-pJVrF-176" value="name" style="shape=partialRectangle;html=1;whiteSpace=wrap;connectable=0;strokeColor=inherit;overflow=hidden;fillColor=none;top=0;left=0;bottom=0;right=0;pointerEvents=1;fontSize=16;align=left;" vertex="1" parent="R9tvNSerCLIq_B-pJVrF-174">
          <mxGeometry x="90" width="243" height="40" as="geometry">
            <mxRectangle width="243" height="40" as="alternateBounds" />
          </mxGeometry>
        </mxCell>
        <mxCell id="R9tvNSerCLIq_B-pJVrF-178" style="shape=tableRow;horizontal=0;startSize=0;swimlaneHead=0;swimlaneBody=0;strokeColor=inherit;top=0;left=0;bottom=0;right=0;collapsible=0;dropTarget=0;fillColor=none;points=[[0,0.5],[1,0.5]];portConstraint=eastwest;fontSize=16;" vertex="1" parent="R9tvNSerCLIq_B-pJVrF-157">
          <mxGeometry y="200" width="333" height="40" as="geometry" />
        </mxCell>
        <mxCell id="R9tvNSerCLIq_B-pJVrF-179" value="" style="shape=partialRectangle;html=1;whiteSpace=wrap;connectable=0;strokeColor=inherit;overflow=hidden;fillColor=none;top=0;left=0;bottom=0;right=0;pointerEvents=1;fontSize=16;" vertex="1" parent="R9tvNSerCLIq_B-pJVrF-178">
          <mxGeometry width="90" height="40" as="geometry">
            <mxRectangle width="90" height="40" as="alternateBounds" />
          </mxGeometry>
        </mxCell>
        <mxCell id="R9tvNSerCLIq_B-pJVrF-180" value="createdAt" style="shape=partialRectangle;html=1;whiteSpace=wrap;connectable=0;strokeColor=inherit;overflow=hidden;fillColor=none;top=0;left=0;bottom=0;right=0;pointerEvents=1;fontSize=16;align=left;" vertex="1" parent="R9tvNSerCLIq_B-pJVrF-178">
          <mxGeometry x="90" width="243" height="40" as="geometry">
            <mxRectangle width="243" height="40" as="alternateBounds" />
          </mxGeometry>
        </mxCell>
        <mxCell id="R9tvNSerCLIq_B-pJVrF-182" style="shape=tableRow;horizontal=0;startSize=0;swimlaneHead=0;swimlaneBody=0;strokeColor=inherit;top=0;left=0;bottom=0;right=0;collapsible=0;dropTarget=0;fillColor=none;points=[[0,0.5],[1,0.5]];portConstraint=eastwest;fontSize=16;" vertex="1" parent="R9tvNSerCLIq_B-pJVrF-157">
          <mxGeometry y="240" width="333" height="40" as="geometry" />
        </mxCell>
        <mxCell id="R9tvNSerCLIq_B-pJVrF-183" value="" style="shape=partialRectangle;html=1;whiteSpace=wrap;connectable=0;strokeColor=inherit;overflow=hidden;fillColor=none;top=0;left=0;bottom=0;right=0;pointerEvents=1;fontSize=16;" vertex="1" parent="R9tvNSerCLIq_B-pJVrF-182">
          <mxGeometry width="90" height="40" as="geometry">
            <mxRectangle width="90" height="40" as="alternateBounds" />
          </mxGeometry>
        </mxCell>
        <mxCell id="R9tvNSerCLIq_B-pJVrF-184" value="updatedAt" style="shape=partialRectangle;html=1;whiteSpace=wrap;connectable=0;strokeColor=inherit;overflow=hidden;fillColor=none;top=0;left=0;bottom=0;right=0;pointerEvents=1;fontSize=16;align=left;" vertex="1" parent="R9tvNSerCLIq_B-pJVrF-182">
          <mxGeometry x="90" width="243" height="40" as="geometry">
            <mxRectangle width="243" height="40" as="alternateBounds" />
          </mxGeometry>
        </mxCell>
        <mxCell id="R9tvNSerCLIq_B-pJVrF-190" value="資料庫schema" style="rounded=0;whiteSpace=wrap;html=1;fontSize=16;" vertex="1" parent="1">
          <mxGeometry x="1560" y="2270" width="330" height="40" as="geometry" />
        </mxCell>
        <mxCell id="R9tvNSerCLIq_B-pJVrF-191" value="&lt;ol style=&quot;padding: 0px; margin: 0px 0px 0px 25px; color: rgb(45, 59, 69); font-family: &amp;quot;Lato Extended&amp;quot;, Lato, &amp;quot;Helvetica Neue&amp;quot;, Helvetica, Arial, sans-serif; font-size: 16px; font-style: normal; font-variant-ligatures: normal; font-variant-caps: normal; font-weight: 400; letter-spacing: normal; orphans: 2; text-align: left; text-indent: 0px; text-transform: none; widows: 2; word-spacing: 0px; -webkit-text-stroke-width: 0px; background-color: rgb(255, 255, 255); text-decoration-thickness: initial; text-decoration-style: initial; text-decoration-color: initial;&quot;&gt;&lt;li&gt;新增 users 路由模組&lt;span&gt;&amp;nbsp;&lt;/span&gt;&lt;code style=&quot;font-family: Monaco, Menlo, Consolas, &amp;quot;Courier New&amp;quot;, monospace; font-size: 0.75rem; border-radius: 6px; background-color: rgb(245, 245, 245); border: 1px solid rgb(199, 205, 209); padding: 0.125rem 0.25rem; color: rgb(224, 6, 31);&quot;&gt;models/user.js&lt;/code&gt;&lt;/li&gt;&lt;li&gt;新增&lt;span&gt;&amp;nbsp;&lt;/span&gt;&lt;code style=&quot;font-family: Monaco, Menlo, Consolas, &amp;quot;Courier New&amp;quot;, monospace; font-size: 0.75rem; border-radius: 6px; background-color: rgb(245, 245, 245); border: 1px solid rgb(199, 205, 209); padding: 0.125rem 0.25rem; color: rgb(224, 6, 31);&quot;&gt;routes/users.js&lt;/code&gt;&lt;/li&gt;&lt;li&gt;新增&lt;span&gt;&amp;nbsp;&lt;/span&gt;&lt;code style=&quot;font-family: Monaco, Menlo, Consolas, &amp;quot;Courier New&amp;quot;, monospace; font-size: 0.75rem; border-radius: 6px; background-color: rgb(245, 245, 245); border: 1px solid rgb(199, 205, 209); padding: 0.125rem 0.25rem; color: rgb(224, 6, 31);&quot;&gt;views/register.hbs&lt;/code&gt;&lt;/li&gt;&lt;li&gt;新增&lt;span&gt;&amp;nbsp;&lt;/span&gt;&lt;code style=&quot;font-family: Monaco, Menlo, Consolas, &amp;quot;Courier New&amp;quot;, monospace; font-size: 0.75rem; border-radius: 6px; background-color: rgb(245, 245, 245); border: 1px solid rgb(199, 205, 209); padding: 0.125rem 0.25rem; color: rgb(224, 6, 31);&quot;&gt;views/login.hbs&lt;/code&gt;&lt;/li&gt;&lt;li&gt;新增&lt;span&gt;&amp;nbsp;&lt;/span&gt;&lt;code style=&quot;font-family: Monaco, Menlo, Consolas, &amp;quot;Courier New&amp;quot;, monospace; font-size: 0.75rem; border-radius: 6px; background-color: rgb(245, 245, 245); border: 1px solid rgb(199, 205, 209); padding: 0.125rem 0.25rem; color: rgb(224, 6, 31);&quot;&gt;views/partials/navbar.hbs&lt;/code&gt;&lt;/li&gt;&lt;/ol&gt;" style="text;whiteSpace=wrap;html=1;" vertex="1" parent="1">
          <mxGeometry x="1560" y="2640" width="310" height="120" as="geometry" />
        </mxCell>
      </root>
    </mxGraphModel>
  </diagram>
</mxfile>
